<svg width="23" height="32" viewBox="0 0 23 32" fill="none" xmlns="http://www.w3.org/2000/svg">
<path d="M11.25 0C5.04675 0 0 5.04675 0 11.25C0 13.3459 0.580563 15.3913 1.67931 17.1658L10.6096 31.5568C10.7807 31.8325 11.0821 32 11.4062 32C11.4087 32 11.4111 32 11.4136 32C11.7406 31.9974 12.0426 31.8248 12.2105 31.5443L20.9132 17.0138C21.9513 15.2768 22.5 13.2837 22.5 11.25C22.5 5.04675 17.4533 0 11.25 0ZM19.3041 16.0511L11.392 29.2616L3.27294 16.1779C2.35838 14.7009 1.8625 12.9969 1.8625 11.25C1.8625 6.08063 6.08063 1.8625 11.25 1.8625C16.4194 1.8625 20.6313 6.08063 20.6313 11.25C20.6313 12.9451 20.1681 14.6055 19.3041 16.0511Z" fill="#002856"/>
<path d="M11.25 5.625C8.14838 5.625 5.625 8.14838 5.625 11.25C5.625 14.3318 8.10731 16.875 11.25 16.875C14.4314 16.875 16.875 14.2979 16.875 11.25C16.875 8.14838 14.3516 5.625 11.25 5.625ZM11.25 15.0125C9.17144 15.0125 7.4875 13.3229 7.4875 11.25C7.4875 9.18225 9.18225 7.4875 11.25 7.4875C13.3177 7.4875 15.0063 9.18225 15.0063 11.25C15.0063 13.2927 13.3615 15.0125 11.25 15.0125Z" fill="#002856"/>
</svg>
