<svg width="76" height="76" viewBox="0 0 76 76" fill="none" xmlns="http://www.w3.org/2000/svg">
<path d="M18.5422 54.0644C18.557 54.0123 18.5745 53.9602 18.5745 53.9031V52.1489C18.5745 50.7546 17.4348 49.62 16.0337 49.62L4.77205 49.6205C4.74771 49.6205 4.72565 49.6324 4.70188 49.6358L2.36199 30.1628C2.29069 29.5664 1.77743 29.125 1.181 29.125C0.524576 29.125 0 29.6501 0 30.306V73.9702C0 74.6267 0.525141 75.1512 1.181 75.1512H1.22853C1.8131 75.1512 2.30202 74.7336 2.39765 74.1609L5.21356 57.5665H13.9463L16.7622 74.1609C16.8578 74.7336 17.3467 75.1512 17.9313 75.1512H17.9788C18.6353 75.1512 19.1598 74.6261 19.1598 73.9702V55.0854C19.1598 54.6378 18.9057 54.266 18.5425 54.0651L18.5422 54.0644ZM17.3816 53.9206H5.14546L4.84724 50.814H16.0337C16.7773 50.814 17.3816 51.4132 17.3816 52.1495L17.3816 53.9206Z" fill="white"/>
<path d="M50.6275 72.5235C48.1817 72.2966 46.3444 70.2809 46.3444 67.8352C46.3444 64.2559 43.8155 61.2618 40.3675 60.6173V52.0034H34.1756V60.6173C30.7276 61.2738 28.1987 64.2678 28.1987 67.8352C28.1987 70.2809 26.3612 72.2972 23.928 72.5235C23.2003 72.5829 22.6752 73.2274 22.7351 73.9433C22.8064 74.6235 23.3791 75.1362 24.0474 75.1362H24.1668C27.9606 74.7785 30.8239 71.6407 30.8239 67.8352C30.8239 65.7114 32.2075 63.9102 34.1762 63.3256H40.3681C42.325 63.8983 43.7205 65.7114 43.7205 67.8352C43.7205 71.6408 46.5839 74.7786 50.3775 75.1362H50.5088C51.1771 75.1362 51.7498 74.6229 51.8092 73.9433C51.8805 73.2274 51.3435 72.5835 50.6277 72.5235H50.6275Z" fill="white"/>
<path d="M17.2 42.5347H33.0079V50.8141H41.5499V42.5347H57.3462C58.4559 42.5347 59.3624 41.64 59.3624 40.5303C59.3624 39.4206 58.4559 38.514 57.3462 38.514H52.3234L52.3239 33.7498C54.6027 33.249 56.0938 29.7292 56.0938 24.6951C56.0938 24.3731 55.8312 24.0986 55.4974 24.0986H47.9456C47.6117 24.0986 47.3492 24.3731 47.3492 24.6951C47.3492 29.7298 48.8403 33.249 51.1309 33.7498V38.514H23.4411V33.7498C25.7199 33.2366 27.211 29.7292 27.211 24.6951C27.211 24.3731 26.9484 24.0986 26.6145 24.0986H19.0509C18.7289 24.0986 18.4544 24.3731 18.4544 24.6951C18.4544 29.7298 19.9574 33.249 22.2482 33.7498V38.514H17.2016C16.0919 38.514 15.1973 39.4206 15.1973 40.5303C15.1978 41.6394 16.0925 42.5347 17.2016 42.5347H17.2Z" fill="white"/>
<path d="M39.2715 8.62521V0H35.2865V8.62521C32.1249 9.56798 29.8223 12.6934 29.8223 15.8668H44.7348C44.7348 12.7052 42.4209 9.57988 39.2712 8.62521H39.2715Z" fill="white"/>
<path d="M37.278 20.8771C39.1432 20.8771 40.6557 19.1744 40.6557 17.0625H33.8945C33.8945 19.1744 35.4071 20.8771 37.2779 20.8771H37.278Z" fill="white"/>
<path d="M73.9786 29.1257C73.3822 29.1257 72.8689 29.5671 72.7976 30.1635L70.4577 49.6365C70.434 49.6337 70.4119 49.6212 70.3876 49.6212H59.1259C57.7242 49.6212 56.5851 50.7552 56.5851 52.1502V53.9043C56.5851 53.9615 56.6027 54.013 56.6174 54.0656C56.2541 54.2659 56 54.6383 56 55.0859V73.9707C56 74.6271 56.5251 75.1517 57.181 75.1517H57.2285C57.8131 75.1517 58.302 74.7341 58.3976 74.1614L61.2136 57.567H69.9463L72.7622 74.1614C72.8578 74.7341 73.3467 75.1517 73.9313 75.1517H73.9788C74.6353 75.1517 75.1598 74.6266 75.1598 73.9707V30.3065C75.1598 29.6501 74.6353 29.1255 73.9788 29.1255L73.9786 29.1257ZM70.0141 53.9211H57.7779V52.1504C57.7779 51.4141 58.3828 50.8149 59.1258 50.8149H70.3123L70.0141 53.9211Z" fill="white"/>
</svg>
