<svg width="347" height="405" viewBox="0 0 347 405" fill="none" xmlns="http://www.w3.org/2000/svg">
<path opacity="0.6" d="M67.4857 68.6023C66.755 66.5929 63.9947 66.4306 62.1274 66.2276C61.072 66.1261 59.9962 66.1464 58.9814 66.4509C58.1492 66.7147 57.2562 67.486 56.424 67.6484C56.2617 67.689 56.1196 67.7701 56.0181 67.8513C55.1859 68.0137 54.3538 68.2776 53.5216 68.6226C53.481 68.5211 53.4404 68.4196 53.3795 68.3182C53.6231 67.7499 53.8261 67.1816 53.9681 66.6132C54.1914 65.6999 54.5364 64.7459 54.6988 63.792C55.9369 63.5687 57.1344 63.244 57.8042 62.0668C58.2101 61.3564 58.0275 60.5851 57.5403 59.9762C56.1805 58.3119 53.5216 59.0629 51.7152 59.4688C50.6801 59.7124 49.6653 60.0777 48.8128 60.7069C48.1024 61.2143 47.5138 62.2495 46.7831 62.6554C46.6411 62.7366 46.5396 62.8584 46.4584 63.0004C45.6262 63.4673 44.855 64.0762 44.104 64.7662C44.1649 63.995 44.2055 63.2237 44.1243 62.493C44.0025 61.3361 44.0837 60.0371 43.7589 58.9208C43.3327 57.4189 41.161 57.0535 40.3694 58.4743C38.8269 61.2346 40.0447 64.746 42.3382 66.6132C41.4451 67.689 40.613 68.8662 39.862 70.084C39.4967 69.5766 39.0501 69.1909 38.6645 68.7038C38.3194 68.2573 38.1368 67.689 37.8729 67.2018C37.2843 66.1667 36.6145 64.5836 35.3561 64.2994H35.3358C35.7824 63.9341 36.168 63.5484 36.4725 63.0816C36.9393 62.3509 36.4928 61.1738 35.5997 61.0114C33.4686 60.6054 31.3577 62.0059 29.6934 63.244C29.3686 63.4876 29.0033 63.792 28.6177 64.1371C28.9018 62.9193 29.1251 61.7015 29.186 60.4837C29.8152 60.0168 30.8503 59.753 31.4389 59.3673C32.1696 58.9005 32.7988 58.251 33.428 57.6624C34.7472 56.4446 36.6145 55.4907 36.5942 53.4813C36.5942 52.6492 36.0462 52.0809 35.3156 51.7967C33.3062 51.0254 31.378 53.0145 30.0181 54.2729C29.2469 55.0036 28.5568 55.8154 28.1306 56.7897C27.7855 57.5812 27.7652 58.7585 27.3593 59.4891C27.2781 59.6312 27.2578 59.7936 27.2578 59.9357C26.7707 60.7475 26.4053 61.6609 26.0806 62.6351C25.7558 61.945 25.3905 61.2549 24.9643 60.6663C24.2742 59.7124 23.7059 58.5555 22.8737 57.7639C21.7371 56.6679 19.6872 57.4595 19.7075 59.0832C19.748 62.2495 22.549 64.6648 25.4717 65.1519C25.4108 65.4563 25.3905 65.7811 25.3499 66.1058C25.289 65.9841 25.2281 65.8826 25.1267 65.7608C24.8019 65.3954 24.2539 65.294 23.7871 65.4157C22.752 65.6593 22.1228 66.7553 21.595 67.7296C20.6005 67.1207 19.3827 66.3088 18.2461 66.6538C17.7996 66.7959 17.3733 67.141 17.2719 67.6281C17.2313 67.8716 17.211 68.1152 17.2516 68.3385C17.0892 68.1355 16.9471 67.9325 16.7847 67.7296C19.0783 65.8623 20.2961 62.351 18.7535 59.5906C17.9619 58.1699 15.7902 58.5149 15.364 60.0371C15.0392 61.1534 15.1204 62.4321 14.9986 63.6093C14.9175 64.34 14.9581 65.1113 15.0189 65.8826C14.268 65.1925 13.4764 64.5836 12.6645 64.1168C12.5833 63.995 12.5022 63.8732 12.3398 63.7717C11.6091 63.3455 11.0205 62.3307 10.3101 61.8029C9.45767 61.1737 8.44284 60.8084 7.40771 60.5648C5.60132 60.1386 2.92216 59.4079 1.58258 61.0723C1.07517 61.6812 0.912798 62.4524 1.31873 63.1628C2.29297 64.9083 4.40381 64.7865 6.14932 65.1925C6.98148 65.3751 7.85423 65.6187 8.72699 65.6593C9.43737 65.6999 10.4522 65.3954 11.2438 65.4969C11.8933 66.5118 12.7051 67.4454 13.5576 68.3587C13.0705 68.237 12.5833 68.1558 12.1774 68.1152C10.1275 67.8716 7.59038 67.7296 5.94636 69.13C5.27657 69.7186 5.45924 70.9567 6.23051 71.3626C7.87453 72.2151 10.0869 71.8904 11.9136 71.9716C13.2531 72.0324 15.1813 72.2557 16.5209 71.728C16.6427 71.8904 16.7644 72.0324 16.8862 72.1948C17.5966 73.2096 18.2461 74.2854 18.8753 75.3611C18.855 75.3611 18.8347 75.3611 18.8144 75.3814C18.652 75.4423 18.51 75.5235 18.3679 75.6249C17.7996 75.5843 17.2313 75.5843 16.663 75.564C15.2828 75.5032 13.9838 74.9754 12.6239 74.9957C10.7972 75.016 10.026 77.5734 11.67 78.4868C13.4155 79.461 16.5209 79.6234 18.7129 78.71C19.3827 79.1971 20.2758 79.5016 21.047 79.664C21.1891 79.9684 21.3109 80.2729 21.4327 80.5773C21.7168 81.2877 21.9807 82.0184 22.2242 82.7287C21.7168 82.6273 21.1891 82.6273 20.6005 82.5867C19.4436 82.4852 18.3476 82.0793 17.211 81.856C14.5927 81.3689 13.5982 84.9411 16.115 85.8341C17.2719 86.2604 18.4897 86.2807 19.7075 86.1386C19.5248 86.9301 19.7886 87.8638 20.5396 88.3306C21.5342 88.9395 22.7114 89.1425 23.8886 89.1425C24.0103 89.8326 24.1118 90.5429 24.2133 91.233H18.5911V94.2775V96.1448V123.119V124.986V128.031H44.104V124.986V123.119V96.2463V94.379V91.3345H35.5185C36.5333 89.1425 37.67 87.0316 39.0095 85.002C39.3343 85.0426 39.6793 85.0832 40.0041 85.1035C40.4709 85.5094 41.0595 85.8138 41.5669 86.098C42.8456 86.7678 44.2258 87.2955 45.6871 87.2752C48.3663 87.2346 48.5895 83.5406 45.951 83.155C45.4639 83.0738 44.9564 83.0535 44.449 83.0129C44.5505 81.856 43.6981 80.6585 42.2367 80.7397C42.2773 80.6788 42.3179 80.6382 42.3788 80.5773C43.0486 79.806 43.7589 79.0754 44.4896 78.365C45.7074 80.7803 49.8276 82.2416 52.3038 81.7951C54.1711 81.4704 54.2726 78.7912 52.5474 78.1823C51.2687 77.7155 49.8479 77.7967 48.5286 77.3907C48.2851 77.3096 48.0415 77.2487 47.8183 77.1675C48.4272 76.6195 48.5084 75.767 48.2242 75.0769C48.6301 74.7725 49.0158 74.4477 49.4217 74.1433C49.5841 74.0215 49.7464 73.92 49.9088 73.8185C51.0048 74.7522 52.9127 75.1581 54.1914 75.5437C55.9369 76.0715 57.926 77.0863 59.7527 76.8224C60.6051 76.7007 61.1937 75.5843 60.7472 74.8131C59.6512 72.9458 57.2156 72.276 55.1859 71.8092C54.78 71.728 54.3132 71.6468 53.8058 71.6062C54.9018 71.0176 55.9775 70.3884 56.9314 69.6374C57.7027 69.7998 58.5552 70.4087 59.2453 70.6117C60.0774 70.8552 60.9908 70.9161 61.8432 70.9973C63.6293 71.2003 65.5778 71.9715 67.0798 70.6523C67.6684 70.1043 67.7495 69.333 67.4857 68.6023ZM47.8791 64.4009C48.5286 64.3197 49.3405 64.5024 50.0103 64.543C49.8276 65.3143 49.8073 66.1058 49.8885 66.8974C48.894 66.8365 47.8589 66.9177 46.9252 67.0192C46.6817 67.0395 46.4178 67.1004 46.1337 67.1409C46.0931 67.0192 46.0525 66.8974 46.0119 66.7553C46.7019 66.0246 47.3311 65.2331 47.8791 64.4009ZM42.5817 70.6523C42.7441 70.7132 42.9065 70.7741 43.0892 70.8146C43.6575 72.0121 44.6317 73.4126 45.6262 73.92C45.6465 73.92 45.6465 73.92 45.6668 73.9403C45.6465 73.9606 45.6465 73.9606 45.6262 73.9809C44.5708 74.1027 43.5154 74.4274 42.4397 74.4883C41.8308 74.5086 41.2422 74.5086 40.6536 74.5695C40.5724 74.4071 40.4912 74.2245 40.41 74.0418C40.9783 73.0676 41.5872 72.0933 42.2367 71.1597C42.3382 70.977 42.46 70.8146 42.5817 70.6523ZM38.8269 81.4501C38.7051 81.4704 38.6036 81.4907 38.4818 81.511C37.8932 81.5718 37.3655 81.5515 36.8581 81.653C37.1017 80.9224 37.3655 80.212 37.67 79.5016C37.8932 78.9536 38.1368 78.4056 38.3803 77.8779C38.9689 78.4868 39.6387 78.9942 40.3694 79.461C39.8417 80.0902 39.3343 80.76 38.8269 81.4501ZM37.1422 71.5656C36.9596 71.6671 36.7769 71.8295 36.6145 72.0324C35.8636 73.0676 36.2695 74.5695 36.8378 75.7264C36.7769 75.8685 36.6957 76.0106 36.6348 76.1527C35.7215 75.7061 34.9096 75.1175 34.1586 74.4274C33.976 74.2448 33.773 74.0418 33.57 73.8185C34.2804 73.2705 34.8893 72.6413 35.2547 72.0121C35.7215 71.2206 35.5185 70.4087 34.9908 69.8607C35.5794 70.4493 36.3507 71.1191 37.1422 71.5656ZM25.2484 85.4688H25.2281C24.8019 83.6827 24.2742 81.9169 23.6247 80.212C24.3554 80.0496 25.0658 79.8263 25.7153 79.5219C25.8979 80.5773 26.1009 81.6124 26.3647 82.6476C26.1618 83.155 26.1618 83.7436 26.4256 84.251C26.6083 84.5757 26.8113 84.8599 27.0548 85.1237C27.0548 85.144 27.0751 85.1643 27.0751 85.2049C27.0548 85.2049 27.0548 85.2252 27.0345 85.2252C26.8925 85.3267 26.7301 85.4282 26.588 85.5094C26.1212 85.5094 25.6747 85.5094 25.2484 85.4688ZM20.4178 73.3111C20.4381 73.3111 20.4584 73.3111 20.4584 73.3111C21.2094 73.1893 22.1025 72.6819 22.894 72.0527C23.6653 72.1136 24.396 72.073 24.9643 71.8498C24.9846 71.8498 24.9846 71.8295 25.0049 71.8295C25.0252 73.027 25.1064 74.1636 25.2078 75.2596C25.1064 75.3814 24.9846 75.4829 24.8831 75.5843C24.5989 75.8482 24.3148 76.0512 24.0306 76.2744C23.442 76.2338 22.8737 76.1527 22.2851 76.0106C22.1025 75.97 21.9198 75.9091 21.7371 75.8482C21.3312 75.0363 20.905 74.1839 20.4178 73.3111ZM34.3819 81.2877C34.524 81.1659 34.6661 81.0035 34.8081 80.8615C34.727 81.105 34.6458 81.3689 34.5646 81.6124C34.5037 81.4907 34.4428 81.3892 34.3819 81.2877ZM31.5404 77.2893C31.7231 77.4313 31.926 77.5531 32.1087 77.6952C31.2359 78.4462 30.485 79.3392 29.5513 80.009C29.0642 80.3541 28.5974 80.6179 28.2117 80.9427C28.0697 80.1917 27.9276 79.4407 27.8261 78.6694C27.8058 78.5071 27.7855 78.365 27.7652 78.2026C28.5162 77.5531 29.3078 76.6195 29.5513 75.6452C29.6731 75.6249 29.8152 75.5843 29.937 75.564C30.4038 76.2541 31.0127 76.863 31.5404 77.2893ZM30.6879 87.4782C31.4389 87.7217 32.3522 87.9044 33.1641 87.8232C33.0017 89.0004 32.88 90.1776 32.8191 91.3548H31.6622C31.1142 90.1776 30.627 89.0004 30.1805 87.8029C30.3429 87.6811 30.5255 87.5796 30.6879 87.4782ZM27.6028 69.1503C27.6231 68.9474 27.6434 68.7647 27.684 68.5617C29.1048 68.3385 30.6676 67.1815 31.8042 66.4509C32.3319 66.1058 32.9408 65.7811 33.5295 65.4563C33.1032 66.7553 33.8136 68.3587 34.6052 69.3939C34.7066 69.5157 34.8081 69.6374 34.9299 69.7592C34.3616 69.2112 33.4889 68.9879 32.6973 69.4345C31.4998 70.1043 30.627 71.2003 29.4701 71.9513C28.78 72.3978 28.0697 72.7631 27.4608 73.2908C27.4405 71.9107 27.4811 70.5305 27.6028 69.1503ZM19.3827 71.0785C19.3218 71.1394 19.2609 71.2003 19.2203 71.2612C19.1189 71.0988 18.9971 70.9364 18.8956 70.7537C19.058 70.8755 19.2203 70.977 19.3827 71.0785ZM25.8979 89.0613C25.9791 89.041 26.0806 89.0207 26.1618 89.0004C26.8925 89.0207 27.6637 88.8786 28.3335 88.6554C28.7192 89.5687 29.1454 90.4821 29.5919 91.3548H26.1618C26.1009 90.5835 26.0197 89.8123 25.8979 89.0613ZM36.5739 84.4134C36.6348 84.454 36.6957 84.4743 36.7769 84.5149C36.7566 84.5352 36.7363 84.5757 36.716 84.596C36.6754 84.5351 36.6145 84.4743 36.5739 84.4134ZM47.4529 72.3978C47.2905 71.8701 47.047 71.4032 46.844 70.8958C46.9658 70.8958 47.0876 70.8755 47.1891 70.8755C47.8994 70.8349 48.691 70.8755 49.4623 70.8755C48.7925 71.3829 48.1024 71.8701 47.4529 72.3978Z" fill="#E5C489"/>
<g opacity="0.6">
<g opacity="0.6">
<path opacity="0.6" d="M340.945 15.2017H198.787V19.9714H340.945V15.2017Z" fill="#E5C489"/>
<path opacity="0.6" d="M340.945 24.9238H198.787V29.6935H340.945V24.9238Z" fill="#E5C489"/>
<path opacity="0.6" d="M340.945 34.646H198.787V39.4157H340.945V34.646Z" fill="#E5C489"/>
<path opacity="0.6" d="M340.945 44.3477H198.787V49.1174H340.945V44.3477Z" fill="#E5C489"/>
<path opacity="0.6" d="M340.945 54.0698H198.787V58.8395H340.945V54.0698Z" fill="#E5C489"/>
<path opacity="0.6" d="M340.945 63.7915H198.787V68.5612H340.945V63.7915Z" fill="#E5C489"/>
<path opacity="0.6" d="M340.945 73.5137H198.787V78.2834H340.945V73.5137Z" fill="#E5C489"/>
<path opacity="0.6" d="M340.945 83.2158H198.787V87.9855H340.945V83.2158Z" fill="#E5C489"/>
<path opacity="0.6" d="M340.945 92.9375H198.787V97.7072H340.945V92.9375Z" fill="#E5C489"/>
<path opacity="0.6" d="M340.945 102.66H198.787V107.429H340.945V102.66Z" fill="#E5C489"/>
<path opacity="0.6" d="M340.945 112.382H198.787V117.152H340.945V112.382Z" fill="#E5C489"/>
<path opacity="0.6" d="M340.945 122.083H198.787V126.853H340.945V122.083Z" fill="#E5C489"/>
<path opacity="0.6" d="M340.945 131.806H198.787V136.575H340.945V131.806Z" fill="#E5C489"/>
</g>
</g>
<path opacity="0.6" d="M5.60156 133.308V207.005H126.975V133.308H5.60156ZM19.6671 157.725C15.3439 157.725 11.8326 154.214 11.8326 149.89C11.8326 145.567 15.3439 142.056 19.6671 142.056C24.0106 142.056 27.5016 145.567 27.5016 149.89C27.5016 154.214 23.9903 157.725 19.6671 157.725ZM118.065 200.023H33.3673V141.873H118.085V200.023H118.065Z" fill="#E5C489"/>
<path d="M102.235 202.195H97.6277L97.6074 176.154C97.6074 174.875 98.6426 173.84 99.9213 173.84C101.2 173.84 102.235 174.875 102.235 176.154V202.195Z" fill="#3F3937"/>
<path d="M98.9259 241.753L97.6676 244.33L97.627 195.213L109.622 195.192C109.622 211.328 105.969 227.241 98.9259 241.753Z" fill="#D3C5D0"/>
<path d="M87.3386 202.195H82.7312L82.7109 176.154C82.7109 174.875 83.7461 173.84 85.0248 173.84C86.3034 173.84 87.3386 174.875 87.3386 176.154V202.195Z" fill="#3F3937"/>
<path d="M84.0295 241.753L82.7711 244.33L82.7305 195.213L94.7258 195.192C94.7258 211.328 91.0724 227.241 84.0295 241.753Z" fill="#D3C5D0"/>
<path d="M60.0215 249.382H112.488V206.739H60.0215L60.0215 249.382Z" fill="#CA8B56"/>
<path d="M152.528 221.131H118.064L120.744 181.39L120.926 178.752L121.271 173.353H149.321L149.687 178.752L149.869 181.39L152.528 221.131Z" fill="#BD4761"/>
<path d="M151.94 173.353H118.674V178.752H151.94V173.353Z" fill="#BD4761"/>
<path d="M149.872 181.391H120.746L120.929 178.752H149.689L149.872 181.391Z" fill="#B23959"/>
<path d="M144.715 196.268C143.639 194.076 139.783 192.493 137.733 191.437C134.465 189.753 130.995 188.433 127.382 187.682C126.976 187.601 126.814 188.19 127.22 188.312C132.192 189.793 136.921 191.701 141.265 194.563C142.828 195.578 145.04 196.633 142.787 198.034C141.63 198.744 139.925 198.866 138.626 199.089C135.724 199.597 132.821 199.617 129.899 199.495C129.107 199.455 129.148 200.611 129.899 200.693C132.111 200.916 147.009 200.977 144.715 196.268Z" fill="#B23959"/>
<path d="M146.582 214.9C137.997 215.733 130.264 213.135 123.201 208.385C122.977 208.243 122.713 208.588 122.916 208.75C129.31 214.291 138.301 216.483 146.582 215.692C147.09 215.651 147.09 214.839 146.582 214.9Z" fill="#B23959"/>
<path d="M258.618 191.843C254.599 195.862 251.332 198.257 251.332 198.257L239.397 178.569L243.111 171.932L248.876 161.642L232.923 143.517L225.758 118.999L227.564 99.9604C243.984 99.9604 271.141 140.249 273.333 160.363C274.734 173.089 265.539 184.902 258.618 191.843Z" fill="white"/>
<path d="M159.066 203.838C159.066 203.838 156.61 213.053 156.285 220.806H234.508C234.508 220.806 233.514 208.933 228.927 198.257L159.066 203.838Z" fill="#444444"/>
<path d="M176.681 36.8178C166.026 35.0317 158.496 18.1246 179.016 11.3658C179.016 11.3658 193.467 -11.6911 212.444 7.87482C212.444 7.87482 227.058 -0.0814477 231.462 22.7725C231.462 22.7725 242.402 34.8084 222.369 39.4361L176.681 36.8178Z" fill="white"/>
<path d="M95.5757 74.9346C96.8747 74.4475 108.911 93.2827 108.911 93.2827C109.418 89.7714 111.184 86.4428 113.782 84.0275C113.802 84.0072 113.822 83.9869 113.863 83.9666C114.107 83.7636 114.411 83.5809 114.695 83.6824C114.837 83.723 114.939 83.8448 115.04 83.9463C115.852 84.9205 115.994 86.3007 115.791 87.5591C115.588 88.7972 115.06 89.9744 114.715 91.1922C114.046 93.5263 114.269 95.9619 114.512 98.3772C114.918 102.457 109.154 107.105 109.154 107.105C109.154 107.105 109.377 107.653 109.682 108.404L98.8232 113.031L97.3618 108.952L94.5812 107.45C92.7342 106.11 83.0324 87.0111 84.0878 86.0165C84.372 85.7527 84.6967 85.4888 85.0418 85.2452C85.5695 84.8799 86.0769 84.5552 86.4219 84.3522C86.6858 84.2101 86.8482 84.1289 86.8482 84.1289C86.8482 84.1289 87.2135 83.4186 87.7615 82.6676C88.066 82.2211 88.4313 81.7542 88.8169 81.3889C89.2229 81.0033 89.6288 80.7597 89.9941 80.8003C90.3595 80.8612 91.3337 81.7948 92.5515 83.1141C95.5351 86.3413 99.9395 91.7605 100.102 91.2733C100.305 90.5833 93.8505 76.5583 93.8505 76.5583C93.8505 76.5583 94.0332 76.1118 94.4797 75.645C94.7233 75.3811 95.0886 75.1173 95.5757 74.9346Z" fill="#F3A080"/>
<path d="M87.7402 82.6676C87.9635 83.0126 88.1867 83.3577 88.41 83.6824C89.7902 85.6715 91.2515 87.3155 92.3881 88.4521C93.4436 89.5075 94.1945 90.1164 94.2757 90.1976C94.2148 90.0961 93.7683 89.2437 93.0376 87.965C92.2461 86.5848 91.1095 84.7378 89.7699 82.7691C89.4452 82.3022 89.1204 81.8354 88.7957 81.4092C88.4303 81.7542 88.065 82.221 87.7402 82.6676Z" fill="#B54B57"/>
<path d="M85.041 85.2451C87.1722 88.4723 89.4251 90.6643 89.5672 90.8064C89.5063 90.6237 88.4508 87.6401 86.4212 84.3521C86.0761 84.555 85.5687 84.8798 85.041 85.2451Z" fill="#B54B57"/>
<path d="M107.247 109.622C107.226 109.561 107.186 109.5 107.166 109.439C107.044 109.114 106.902 108.789 106.82 108.444C106.76 108.16 106.739 107.896 106.76 107.612C106.841 106.861 107.348 106.212 107.856 105.664C109.5 103.817 111.347 102.031 112.199 99.7168C113.194 96.9767 112.625 93.9119 113.112 91.0298C113.457 88.9393 114.351 86.8487 114.026 84.7582C113.985 84.5146 113.924 84.2507 113.863 83.9869C114.107 83.7839 114.411 83.6013 114.696 83.7027C114.838 83.7636 114.939 83.8651 115.041 83.9869C115.852 84.9611 115.995 86.3413 115.792 87.5997C115.589 88.8581 115.061 90.015 114.716 91.2328C114.046 93.5669 114.269 96.0025 114.513 98.4178C114.919 102.497 109.155 107.166 109.155 107.166C109.155 107.166 109.459 107.673 109.845 108.201C109.865 108.241 109.906 108.282 109.946 108.343L110.23 108.769L107.247 109.622Z" fill="#F8BF92"/>
<path d="M101.827 106.577C101.827 106.577 101.746 106.435 101.624 106.191C101.482 105.927 101.32 105.542 101.178 105.055C100.893 104.06 100.751 102.558 101.238 100.995C101.726 99.4527 102.679 98.2755 103.491 97.626C103.897 97.3012 104.242 97.0577 104.506 96.9359C104.75 96.8141 104.912 96.7329 104.912 96.7329C104.912 96.7329 104.831 96.875 104.689 97.1186C104.547 97.3418 104.344 97.7072 104.121 98.1334C103.674 98.9858 103.167 100.163 102.761 101.482C102.355 102.802 102.091 104.04 101.989 105.014C101.929 105.481 101.888 105.887 101.888 106.171C101.847 106.414 101.827 106.577 101.827 106.577Z" fill="#DD5B67"/>
<path d="M94.2129 115.487C94.2129 115.487 95.4307 117.801 97.4806 121.353C103.407 131.542 116.235 151.818 127.154 156.365C141.869 162.514 166.672 139.173 166.672 139.173L172.558 98.8237C172.558 98.8237 162.105 99.5341 155.082 105.785C151.49 108.992 133.467 132.191 133.467 132.191L114.997 108.789L111.567 104.446L94.2129 115.487Z" fill="white"/>
<path d="M94.2129 115.487C94.2129 115.487 95.4307 117.801 97.4806 121.353L114.997 108.81L111.567 104.466L94.2129 115.487Z" fill="#D3D3D3"/>
<path d="M235.62 210.374C235.011 210.881 233.306 211.531 230.891 212.241C220.662 215.286 197.909 219.528 194.824 218.716C191.82 217.924 170.265 214.535 160.36 210.435C157.762 209.359 155.976 208.222 155.53 207.086C153.317 201.585 161.03 192.168 161.03 192.168C161.152 185.896 161.314 178.163 161.497 169.842C161.578 166.127 161.68 162.291 161.761 158.435C161.801 156.811 161.862 155.187 161.903 153.543C162.004 150.012 162.106 146.48 162.207 143.03C162.207 142.725 162.228 142.441 162.228 142.137C162.938 120.216 163.892 101.117 165.069 100.569C165.962 100.163 168.946 99.5544 172.518 98.9252C174.73 98.5396 177.186 98.1539 179.48 97.7886C179.845 97.7277 180.21 97.6668 180.576 97.6059C181.773 97.4233 182.93 97.2406 183.965 97.0985C184.128 97.0782 184.27 97.0579 184.412 97.0376C184.594 97.0173 184.777 96.9768 184.96 96.9565C185.589 96.855 186.157 96.7738 186.644 96.7129L193.586 96.855L200.832 96.997L208.301 97.1391C209.011 97.2609 210.087 97.4233 211.366 97.6059C212.056 97.6871 212.786 97.8089 213.578 97.9104C214.43 98.0322 215.344 98.154 216.277 98.2757C222.914 99.1891 231.013 100.305 232.535 101.056C232.535 101.056 232.535 101.056 232.555 101.056C233.631 101.807 233.53 119.039 233.022 139.518C233.002 140.817 232.961 142.137 232.921 143.476C232.819 147.231 232.697 151.067 232.596 154.903C232.535 156.527 232.494 158.151 232.434 159.774C232.312 163.651 232.17 167.487 232.048 171.201C231.723 180.294 231.398 188.697 231.135 195.253C231.155 195.294 238.868 207.715 235.62 210.374Z" fill="white"/>
<path d="M187.354 187.013C187.456 188.657 186.38 188.677 186.238 187.074C184.838 171.405 184.188 155.37 183.803 139.661C183.518 127.625 183.315 115.325 183.701 103.37C183.762 101.28 183.863 99.1892 183.965 97.1189C183.965 97.0174 183.965 96.9159 183.985 96.8145C184.127 96.8753 184.269 96.9768 184.411 97.058C184.594 97.0377 184.777 96.9971 184.959 96.9768C184.959 97.3625 184.959 97.7481 184.959 98.1134C184.959 100.204 184.98 102.315 184.959 104.405C184.959 116.522 184.817 128.579 185.101 140.757C185.487 156.243 186.441 171.567 187.354 187.013Z" fill="#D3D3D3"/>
<path d="M211.242 76.4164C214.104 76.254 216.276 74.2243 217.453 72.4788C217.717 72.0932 217.94 71.7076 218.102 71.3625C218.996 69.5358 219.544 63.0612 217.514 61.4578C216.093 60.3415 214.956 61.8231 214.408 62.7973C214.165 63.2236 214.043 63.5483 214.043 63.5483L211.242 76.4164Z" fill="#F8BF92"/>
<path d="M210.938 76.538C213.799 76.3959 216.276 74.2242 217.453 72.4787C217.554 72.296 217.656 72.1336 217.737 71.9713C218.63 70.1446 219.178 63.6699 217.148 62.0665C215.991 61.1532 215.037 61.9447 214.408 62.8175C214.165 63.2437 214.043 63.5685 214.043 63.5685L210.938 76.538Z" fill="#F3A080"/>
<path d="M217.961 66.6336C218.042 67.1613 217.94 67.689 217.798 68.1964C217.129 70.3479 215.342 71.931 213.617 73.3924C214.165 72.3572 214.388 71.18 214.348 70.0028C214.328 69.5969 214.287 69.191 214.307 68.785C214.348 67.1816 217.474 63.5485 217.961 66.6336Z" fill="#EA7C6F"/>
<path d="M212.764 73.9809C212.764 73.9809 212.804 73.9606 212.865 73.92C212.926 73.8794 213.028 73.8185 213.129 73.7373C213.352 73.5547 213.677 73.2705 213.981 72.8443C214.286 72.4181 214.57 71.8295 214.732 71.1394C214.875 70.4493 214.895 69.6374 214.631 68.8459C214.611 68.7444 214.57 68.6429 214.529 68.5617L214.509 68.4805C214.509 68.4602 214.509 68.4805 214.509 68.4805C214.509 68.4805 214.509 68.4805 214.509 68.4602L214.529 68.3993L214.59 68.2776C214.631 68.1964 214.672 68.1152 214.712 68.034C214.875 67.7295 215.057 67.4251 215.24 67.1612C215.423 66.8974 215.605 66.6335 215.808 66.4103C215.991 66.187 216.174 65.984 216.356 65.8217C216.539 65.6593 216.722 65.5781 216.904 65.5578C217.087 65.5375 217.249 65.5984 217.351 65.6796C217.452 65.7608 217.513 65.842 217.533 65.9231C217.554 65.984 217.554 66.0246 217.554 66.0246C217.554 66.0246 217.574 65.984 217.554 65.9028C217.554 65.8217 217.513 65.6999 217.391 65.5984C217.29 65.4969 217.107 65.3954 216.884 65.3751C216.661 65.3548 216.397 65.4563 216.174 65.5984C215.95 65.7405 215.727 65.9434 215.504 66.1464C215.28 66.3494 215.057 66.5929 214.834 66.8771C214.611 67.1409 214.408 67.4454 214.205 67.7701C214.164 67.8513 214.103 67.9325 214.063 68.0137L214.002 68.1355L213.9 68.3181L213.839 68.4399C213.86 68.4805 213.88 68.5211 213.88 68.582L213.961 68.7647C214.002 68.8459 214.022 68.927 214.042 69.0082C214.266 69.6983 214.286 70.4087 214.205 71.0379C214.124 71.6671 213.921 72.2354 213.697 72.6616C213.474 73.1081 213.21 73.4329 213.028 73.6359C212.926 73.7373 212.845 73.8185 212.804 73.8794C212.784 73.9606 212.764 73.9809 212.764 73.9809Z" fill="#B54B57"/>
<path d="M184.368 75.8888C181.526 75.625 179.436 73.4938 178.299 71.7077C178.056 71.3018 177.853 70.9161 177.69 70.5711C176.858 68.7038 176.594 62.2089 178.665 60.6867C180.126 59.6109 181.202 61.1535 181.709 62.148C181.932 62.5742 182.054 62.9193 182.054 62.9193L184.368 75.8888Z" fill="#F8BF92"/>
<path d="M184.672 76.0105C181.831 75.7466 179.436 73.4937 178.319 71.7076C178.218 71.5249 178.137 71.3423 178.056 71.1799C177.223 69.3126 176.959 62.8177 179.03 61.2954C180.207 60.4227 181.141 61.2751 181.729 62.1479C181.952 62.5741 182.074 62.9192 182.074 62.9192L184.672 76.0105Z" fill="#F3A080"/>
<path d="M178.056 65.8621C177.955 66.3898 178.016 66.9175 178.158 67.4249C178.746 69.5967 180.472 71.261 182.116 72.7832C181.608 71.7278 181.425 70.5303 181.527 69.3734C181.568 68.9675 181.628 68.5615 181.628 68.1556C181.628 66.5319 178.665 62.777 178.056 65.8621Z" fill="#EA7C6F"/>
<path d="M182.967 73.3924C182.967 73.3924 182.927 73.3721 182.866 73.3315C182.805 73.2909 182.703 73.23 182.602 73.1285C182.379 72.9458 182.074 72.6414 181.79 72.2152C181.506 71.7686 181.242 71.18 181.12 70.4899C180.998 69.7999 181.019 68.988 181.303 68.1964C181.343 68.095 181.384 67.9935 181.425 67.9123L181.465 67.8514C181.465 67.8311 181.465 67.8514 181.465 67.8514C181.465 67.8514 181.465 67.8514 181.465 67.8311L181.445 67.7702L181.384 67.6484C181.343 67.5672 181.303 67.4861 181.262 67.4049C181.1 67.0801 180.938 66.796 180.755 66.5118C180.572 66.2277 180.41 65.9841 180.227 65.7406C180.044 65.5173 179.882 65.294 179.699 65.1316C179.537 64.9693 179.334 64.8678 179.172 64.8475C178.989 64.8272 178.827 64.8678 178.725 64.949C178.603 65.0302 178.543 65.1113 178.522 65.1722C178.502 65.2331 178.502 65.2737 178.502 65.2737C178.502 65.2737 178.502 65.2331 178.502 65.1519C178.522 65.0708 178.563 64.9693 178.664 64.8475C178.766 64.746 178.948 64.6445 179.172 64.6445C179.395 64.6445 179.659 64.746 179.882 64.8881C180.105 65.0505 180.308 65.2534 180.532 65.4564C180.735 65.6796 180.958 65.9232 181.161 66.2074C181.364 66.4915 181.567 66.796 181.749 67.1207C181.79 67.2019 181.831 67.2831 181.891 67.3643L181.952 67.486L182.034 67.6687L182.094 67.7905C182.074 67.8311 182.054 67.8717 182.034 67.9123L181.952 68.0949C181.912 68.1761 181.871 68.2573 181.851 68.3385C181.607 69.0083 181.546 69.7187 181.607 70.3682C181.668 70.9974 181.851 71.5657 182.054 72.0122C182.257 72.4587 182.5 72.7835 182.683 73.0067C182.764 73.1082 182.845 73.1894 182.906 73.2503C182.947 73.3721 182.967 73.3924 182.967 73.3924Z" fill="#B54B57"/>
<path d="M208.319 97.1593C205.538 99.3919 202.615 101.828 198.942 102.03C198.434 102.051 197.967 102.071 197.501 102.071C189.362 102.071 187.677 97.9712 186.662 96.7331C187.474 96.2459 188.651 95.1296 188.793 94.9876L188.814 94.9673C189.179 94.7237 189.443 93.4856 189.605 91.8822C190.011 88.0867 189.97 82.2007 189.97 82.2007L205.497 82.3631C205.497 82.3631 205.599 87.1125 205.741 90.8876C205.822 92.9173 205.903 94.6628 205.984 95.2311C205.984 95.3123 206.005 95.3732 206.025 95.3935C206.208 95.7791 207.04 96.4083 208.319 97.1593Z" fill="#F3A080"/>
<path d="M189.605 91.8822C194.761 93.993 200.87 93.5262 205.741 90.8673C205.599 87.0922 205.498 82.3428 205.498 82.3428L189.971 82.2007C189.971 82.2007 190.011 88.0867 189.605 91.8822Z" fill="#EA7C6F"/>
<path d="M182.238 65.842C182.644 68.7647 183.233 71.6671 183.984 74.468C185.263 79.258 187.028 84.3728 192.082 86.2198C197.075 88.0667 203.814 87.9044 207.771 83.9059C210.309 81.3283 211.08 77.6343 212.115 74.3056C215.687 62.7366 218.366 44.5914 204.727 38.3603C199.876 36.148 193.584 35.5797 188.875 38.5024C184.755 41.0598 182.868 45.5048 182.177 50.1324C181.426 55.2877 181.528 60.6257 182.238 65.842Z" fill="#F8BF92"/>
<path d="M182.645 64.6037C183.03 67.5264 183.619 70.4288 184.349 73.2297C185.608 78.0197 187.333 83.1345 192.285 84.9815C197.177 86.8082 203.773 86.6661 207.65 82.6677C210.146 80.09 210.897 76.396 211.912 73.0674C215.403 61.4983 218.062 43.3531 204.707 37.1221C199.958 34.9097 193.787 34.3414 189.2 37.2641C185.161 39.8215 183.314 44.2665 182.624 48.8941C181.853 54.0291 181.934 59.3671 182.645 64.6037Z" fill="#F3A080"/>
<path d="M189.869 73.3312C189.869 73.3312 196.202 71.9307 206.005 75.0767C206.005 75.0767 202.778 81.7746 196.973 80.78C191.148 79.8058 189.869 73.3312 189.869 73.3312Z" fill="white"/>
<path d="M208.055 61.6403C207.994 63.3249 207.081 64.6442 206.025 64.6036C204.97 64.563 204.178 63.1625 204.26 61.4779C204.321 59.7933 205.234 58.474 206.289 58.5146C207.324 58.5552 208.116 59.9556 208.055 61.6403Z" fill="#2A2B2B"/>
<path d="M210.37 60.585C210.37 60.585 209.659 61.5998 208.482 62.026C207.305 62.4523 206.107 62.1072 206.107 62.1072C206.107 62.1072 206.818 61.0924 207.995 60.6662C209.172 60.2399 210.37 60.585 210.37 60.585Z" fill="#FEF1E8"/>
<path d="M188.143 61.2344C188.143 62.9191 188.995 64.2789 190.05 64.2789C191.106 64.2789 191.938 62.9191 191.938 61.2344C191.938 59.5498 191.086 58.1899 190.03 58.1899C188.995 58.1899 188.143 59.5498 188.143 61.2344Z" fill="#2A2B2B"/>
<path d="M185.869 60.0979C185.869 60.0979 186.539 61.1533 187.696 61.6201C188.853 62.0869 190.071 61.8028 190.071 61.8028C190.071 61.8028 189.401 60.7473 188.244 60.2805C187.087 59.8137 185.869 60.0979 185.869 60.0979Z" fill="#FEF1E8"/>
<path d="M211.991 55.795C211.991 55.795 205.962 49.8481 203.243 50.9847C201.66 51.6545 202.654 52.5273 202.654 52.5273L211.991 55.795Z" fill="#444444"/>
<path d="M184.652 52.3448C184.652 52.3448 192.974 50.7211 194.598 53.177C195.552 54.618 194.232 54.7804 194.232 54.7804L184.652 52.3448Z" fill="#444444"/>
<path d="M200.646 69.6782C200.362 69.1099 200.078 68.5213 199.794 67.953C198.292 67.8718 196.749 67.2426 195.613 66.248C195.491 66.7352 195.369 67.2223 195.369 67.7094C195.369 68.2168 195.531 68.7242 195.856 69.0896C196.181 69.4346 196.628 69.597 197.074 69.7188C198.332 70.0841 199.408 70.0029 200.646 69.6782Z" fill="#EA7C6F"/>
<path d="M195.613 69.0287C195.613 69.0287 195.796 69.191 196.161 69.4143C196.527 69.6376 197.095 69.9217 197.846 70.1044C198.232 70.1856 198.658 70.2465 199.125 70.2668C199.612 70.2668 199.957 70.2668 200.972 69.9826L201.134 69.942C201.154 69.942 201.195 69.9217 201.215 69.9217L201.175 69.8608L201.012 69.5767C200.911 69.394 200.789 69.191 200.687 69.0084C200.627 68.8866 200.586 68.8257 200.566 68.7851L200.484 68.6227L200.302 68.2777C200.099 67.7906 199.876 67.3034 199.713 66.7757C199.003 64.6649 198.861 62.6149 198.962 61.1333C199.003 60.3823 199.104 59.7937 199.165 59.3878C199.246 58.9818 199.287 58.7383 199.287 58.7383C199.287 58.7383 199.186 58.9616 199.023 59.3472C198.861 59.7328 198.658 60.3214 198.495 61.0724C198.15 62.554 198.069 64.7867 198.84 67.0599C199.023 67.6282 199.267 68.1559 199.51 68.6633C199.632 68.8866 199.774 69.1098 199.896 69.3128C199.916 69.3534 200.018 69.4549 199.997 69.4752C200.079 69.4955 199.47 69.6376 199.084 69.6782C198.658 69.7187 198.272 69.7188 197.907 69.6985C197.176 69.6376 196.608 69.4752 196.202 69.3331C195.837 69.1504 195.613 69.0287 195.613 69.0287Z" fill="#DD5B67"/>
<path d="M206.859 69.576C207.123 70.3066 209.112 70.2661 211.324 69.4948C213.536 68.7235 215.099 67.5057 214.856 66.775C214.592 66.0443 212.603 66.0849 210.39 66.8562C208.198 67.6275 206.615 68.8453 206.859 69.576Z" fill="#EA7C6F"/>
<path d="M180.471 65.943C180.167 66.6534 181.648 67.993 183.78 68.9266C185.911 69.8603 187.9 70.0632 188.225 69.3529C188.529 68.6425 187.047 67.3029 184.916 66.3693C182.765 65.4153 180.776 65.2326 180.471 65.943Z" fill="#EA7C6F"/>
<path d="M180.633 41.3845C181.06 46.6413 200.301 48.3665 200.301 48.3665C197.885 47.372 196.972 43.5562 196.911 43.3329C198.921 46.3977 213.23 49.8684 213.23 49.8684C214.549 51.5734 214.59 63.4469 214.59 63.4469L216.985 61.2954C216.985 61.2954 218.953 52.9941 219.197 47.169C219.278 44.9161 219.116 43.0285 218.487 42.1557C216.173 38.9895 208.237 34.5648 200.423 32.9005C193.989 31.5203 184.429 34.6257 181.526 38.7053C180.877 39.5578 180.552 40.4508 180.633 41.3845Z" fill="#2A2B2B"/>
<path d="M181.973 41.4858C181.973 41.4858 179.944 44.8348 179.802 46.4179C179.68 48.0214 179.518 60.5241 179.518 60.5241L182.075 62.8988C182.075 62.8988 184.348 45.261 185.322 43.4952C186.297 41.7497 181.973 41.4858 181.973 41.4858Z" fill="#2A2B2B"/>
<path d="M235.908 129.005C236.557 125.697 236.821 122.388 236.719 119.019C236.699 118.085 238.14 118.126 238.16 119.039C238.242 125.189 237.511 132.882 233.776 137.996C233.695 138.118 233.513 138.037 233.533 137.895C234.142 134.891 235.319 132.029 235.908 129.005Z" fill="#D3D3D3"/>
<path d="M157.36 121.881C157.623 121.373 158.293 121.698 158.334 122.165C158.618 125.148 157.928 127.949 158.537 130.974C159.146 133.957 160.627 136.454 161.784 139.214C161.967 139.64 161.48 140.046 161.115 139.701C157.218 136.088 154.741 126.772 157.36 121.881Z" fill="#D3D3D3"/>
<path d="M131.541 136.332C132.171 135.479 132.719 134.566 133.226 133.632C133.47 133.186 134.16 133.227 134.383 133.653C135.276 135.378 136.839 136.86 137.468 138.707C137.59 139.072 137.123 139.234 136.879 139.031C135.662 138.017 134.87 136.494 133.916 135.195C133.531 135.906 133.084 136.575 132.597 137.225C132.089 137.895 131.663 138.686 130.79 138.849C130.527 138.889 130.242 138.727 130.263 138.422C130.324 137.529 131.014 137.042 131.541 136.332Z" fill="#D3D3D3"/>
<path d="M195.78 97.7481L197.485 102.092C189.346 102.092 187.661 97.9917 186.646 96.7536C187.458 96.2665 188.636 95.1502 188.778 95.0081L188.798 94.9878L195.78 97.7481Z" fill="#D3D3D3"/>
<path d="M208.322 97.1597C205.541 99.3923 202.619 101.828 198.945 102.031C198.438 102.051 197.971 102.071 197.504 102.071L199.067 97.6265L206.028 95.1909C206.028 95.2721 206.049 95.333 206.069 95.3533C206.211 95.7795 207.043 96.4087 208.322 97.1597Z" fill="#D3D3D3"/>
<path d="M216.301 98.3162C216.301 98.3162 212.465 107.409 200.449 108.465C200.226 108.485 199.982 108.505 199.739 108.505C199.231 108.546 198.704 108.566 198.176 108.566H197.953C197.831 108.566 197.709 108.566 197.608 108.566C197.222 108.566 196.836 108.546 196.451 108.525C195.903 108.505 195.355 108.444 194.827 108.363C193.589 108.221 192.452 107.957 191.397 107.653C188.779 106.881 186.668 105.704 185.004 104.425C184.537 104.101 184.131 103.735 183.745 103.39C180.701 100.65 179.523 97.8088 179.523 97.8088C179.523 97.8088 181.35 95.495 184.029 96.8143C184.171 96.8752 184.313 96.9766 184.455 97.0578C184.455 97.0578 184.598 97.4638 185.004 98.1335C186.079 99.9602 188.961 103.695 195.558 105.927C195.639 105.968 195.72 105.988 195.801 106.029C196.309 106.212 196.857 106.354 197.405 106.496C197.445 106.516 197.506 106.516 197.547 106.536C197.689 106.577 197.811 106.618 197.953 106.638C197.953 106.638 198.095 106.597 198.359 106.516C198.582 106.455 198.927 106.354 199.333 106.212C202.195 105.258 208.771 102.579 211.389 97.6261C211.551 97.4638 213.886 95.495 216.301 98.3162Z" fill="#BD4761"/>
<path d="M197.282 110.332C198.694 110.332 199.839 109.187 199.839 107.775C199.839 106.362 198.694 105.217 197.282 105.217C195.87 105.217 194.725 106.362 194.725 107.775C194.725 109.187 195.87 110.332 197.282 110.332Z" fill="#BD4761"/>
<path d="M195.779 106.009C190.888 106.476 188.96 109.5 188.899 114.189C188.838 118.857 186.666 118.999 186.666 118.999C186.666 118.999 196.327 118.654 197.504 109.439C198.215 103.695 195.779 106.009 195.779 106.009Z" fill="#BD4761"/>
<path d="M197.119 107.511C194.216 111.144 195.394 114.919 199.169 118.836C202.944 122.733 201.604 124.296 201.604 124.296C201.604 124.296 207.815 117.598 201.077 109.216C196.855 103.979 197.119 107.511 197.119 107.511Z" fill="#BD4761"/>
<path d="M194.32 108.566C194.32 108.566 192.351 111.408 192.533 113.762C192.736 116.116 195.822 107.328 194.32 108.566Z" fill="#9B344F"/>
<path d="M198.38 108.627C198.785 108.891 198.785 109.215 198.887 109.682C199.009 110.251 199.191 110.799 199.394 111.326C199.8 112.361 200.389 113.254 200.896 114.229C201.018 114.452 200.714 114.696 200.511 114.533C199.597 113.843 198.928 112.767 198.44 111.732C198.095 111.002 197.284 109.439 197.872 108.688C198.014 108.566 198.217 108.525 198.38 108.627Z" fill="#9B344F"/>
<path d="M103.837 122.815C103.837 123.606 103.188 124.256 102.396 124.256C101.605 124.256 100.955 123.606 100.955 122.815C100.955 122.023 101.605 121.374 102.396 121.374C103.208 121.374 103.837 122.003 103.837 122.815Z" fill="#444444"/>
<path d="M190.259 126.732C190.259 127.523 189.61 128.173 188.818 128.173C188.026 128.173 187.377 127.523 187.377 126.732C187.377 125.94 188.026 125.291 188.818 125.291C189.61 125.291 190.259 125.94 190.259 126.732Z" fill="#444444"/>
<path d="M207.876 126.732C207.876 127.523 207.227 128.173 206.435 128.173C205.644 128.173 204.994 127.523 204.994 126.732C204.994 125.94 205.644 125.291 206.435 125.291C207.247 125.291 207.876 125.94 207.876 126.732Z" fill="#444444"/>
<path d="M190.726 154.964C190.726 155.756 190.076 156.406 189.285 156.406C188.493 156.406 187.844 155.756 187.844 154.964C187.844 154.173 188.493 153.523 189.285 153.523C190.076 153.523 190.726 154.173 190.726 154.964Z" fill="#444444"/>
<path d="M208.365 154.964C208.365 155.756 207.715 156.406 206.923 156.406C206.132 156.406 205.482 155.756 205.482 154.964C205.482 154.173 206.132 153.523 206.923 153.523C207.715 153.523 208.365 154.173 208.365 154.964Z" fill="#444444"/>
<path d="M192.675 185.105C192.675 185.896 192.026 186.546 191.234 186.546C190.442 186.546 189.793 185.896 189.793 185.105C189.793 184.313 190.442 183.664 191.234 183.664C192.026 183.664 192.675 184.293 192.675 185.105Z" fill="#444444"/>
<path d="M210.312 185.105C210.312 185.896 209.662 186.546 208.871 186.546C208.079 186.546 207.43 185.896 207.43 185.105C207.43 184.313 208.079 183.664 208.871 183.664C209.662 183.643 210.312 184.293 210.312 185.105Z" fill="#444444"/>
<path d="M166.47 199.272C173.026 201.464 180.901 201.707 187.761 201.768C192.957 201.809 199.067 201.991 204.323 200.611C206.617 200.733 208.931 200.733 211.204 200.571C212.056 200.51 212.056 199.312 211.204 199.251C209.885 199.15 208.586 199.048 207.266 198.947C207.246 198.947 207.246 198.927 207.226 198.927C206.942 198.906 206.657 198.886 206.394 198.866C201.543 198.5 196.753 198.074 191.942 197.059C186.625 195.943 181.368 193.365 176.03 192.716C175.462 192.655 175.401 193.426 175.766 193.69C180.414 197.019 187.518 198.115 193.059 199.15C193.627 199.251 194.216 199.353 194.804 199.454C192.166 199.718 189.527 199.941 186.929 199.881C180.089 199.759 173.452 198.358 166.673 197.891C165.841 197.851 165.76 199.028 166.47 199.272Z" fill="#D3D3D3"/>
<path d="M179.808 46.4386C179.808 46.4386 197.466 39.3144 219.102 48.59L221.74 31.8453C221.74 31.8453 198.42 21.0272 178.488 30.181L179.808 46.4386Z" fill="white"/>
<path d="M179.279 37.5284L177.574 28.1107C177.574 28.1107 201.139 20.053 221.232 28.882L220.847 29.8969C220.847 29.8969 202.823 21.6767 178.975 28.882L179.279 37.5284Z" fill="#D3D3D3"/>
<path d="M227.97 25.5125C227.361 25.9387 226.63 26.1214 225.92 26.3649C225.169 26.6288 224.398 26.9333 223.626 27.1159C223.139 27.2377 222.551 26.8318 222.713 26.2838C223.22 24.3556 223.911 22.4477 224.905 20.7022C225.23 20.1339 226.001 20.5601 225.778 21.1487C225.27 22.4883 224.804 23.8279 224.459 25.208C224.743 25.1066 225.007 25.0051 225.291 24.9036C226.042 24.6194 226.772 24.2541 227.584 24.1932C228.315 24.1323 228.518 25.1269 227.97 25.5125Z" fill="#D3D3D3"/>
<path d="M197.851 15.2221C198.075 15.9325 198.014 16.6835 198.034 17.4344C198.054 18.2463 198.115 19.0582 198.034 19.8497C197.993 20.3572 197.445 20.7834 196.958 20.4586C195.274 19.3626 193.691 18.1448 192.331 16.6632C191.904 16.1963 192.534 15.5874 193.021 15.9731C194.137 16.8661 195.274 17.7186 196.471 18.4899C196.451 18.2057 196.451 17.9013 196.431 17.6171C196.39 16.8052 196.268 15.9934 196.451 15.2221C196.654 14.4914 197.648 14.5726 197.851 15.2221Z" fill="#D3D3D3"/>
<path d="M104.487 56.4246L95.4961 55.9983L96.0238 44.8149C96.1253 42.6229 97.9926 40.918 100.185 41.0194L101.199 41.06C103.391 41.1615 105.096 43.0288 104.995 45.2208L104.487 56.4246Z" fill="#444444"/>
<path d="M138.99 81.9373L60.7871 78.3042C65.4756 60.4229 82.1595 47.6158 101.36 48.5088C120.561 49.4019 135.986 63.6907 138.99 81.9373Z" fill="#D3D3D3"/>
<path d="M151.94 87.6608L50.132 82.9317C48.8736 82.8708 47.9196 81.8154 47.9602 80.557L47.9805 79.9684C48.0414 78.71 49.0968 77.7561 50.3552 77.7967L152.163 82.5258C153.421 82.5867 154.375 83.6421 154.335 84.9005L154.314 85.4891C154.254 86.7475 153.198 87.7217 151.94 87.6608Z" fill="#E0E0E0"/>
<path d="M55.4902 83.1753L61.0109 89.4672C63.4465 92.2479 66.9375 93.8919 70.6315 94.0137L127.868 95.8607C131.988 96.0028 135.926 94.2369 138.564 91.0707L141.812 87.194L55.4902 83.1753Z" fill="#ADA9A8"/>
<path d="M115.791 87.5391C115.71 88.006 115.588 88.4525 115.446 88.9193C115.406 89.0614 115.345 89.2238 115.304 89.3658C115.101 89.9747 114.898 90.5633 114.716 91.1722C114.635 91.4564 114.553 91.7405 114.492 92.0247C114.452 92.3088 114.391 92.6133 114.35 92.8975C114.33 93.1613 114.29 93.4455 114.269 93.7296C114.208 94.9474 114.29 96.1855 114.411 97.4236C114.452 97.728 114.472 98.0325 114.513 98.3369C114.553 98.7226 114.533 99.1082 114.472 99.4939C114.472 99.4939 114.472 99.4939 114.472 99.5142C114.432 99.7577 114.371 100.001 114.29 100.245C114.249 100.367 114.208 100.488 114.168 100.63C114.127 100.752 114.066 100.874 114.026 100.996C113.985 101.118 113.924 101.239 113.863 101.361C113.802 101.483 113.742 101.605 113.681 101.726C113.599 101.889 113.498 102.051 113.417 102.214C113.356 102.335 113.275 102.457 113.193 102.579C113.112 102.701 113.031 102.822 112.95 102.944C112.605 103.472 112.219 103.959 111.813 104.426C111.752 104.487 111.712 104.548 111.651 104.609C111.448 104.284 111.062 103.553 110.616 102.396C110.027 100.833 109.337 98.479 108.952 95.2925C108.952 95.2925 108.911 94.3994 108.891 93.1207C109.439 89.6703 111.164 86.4025 113.742 84.0278C113.762 84.0075 113.802 83.9872 113.823 83.9669C113.965 83.8452 114.127 83.7437 114.29 83.6828C114.411 83.6422 114.533 83.6422 114.655 83.6828C114.675 83.6828 114.695 83.7031 114.736 83.7234C114.838 83.7843 114.919 83.8655 115 83.9466C115.873 84.9006 116.015 86.3011 115.791 87.5391Z" fill="#F3A080"/>
<path d="M115.793 87.5389C115.712 88.0058 115.59 88.4523 115.448 88.9191C115.407 89.0612 115.346 89.2236 115.306 89.3656C115.103 89.9745 114.879 90.5631 114.717 91.172C114.636 91.4562 114.555 91.7403 114.514 92.0245C114.453 92.3086 114.413 92.6131 114.372 92.8972C114.331 93.1814 114.311 93.4452 114.291 93.7294C114.23 94.9472 114.311 96.1853 114.433 97.4234C114.453 97.7278 114.494 98.0323 114.514 98.3367C114.555 98.7224 114.534 99.108 114.474 99.4936C114.474 99.4936 114.474 99.4936 114.474 99.5139C114.433 99.7575 114.372 100.001 114.291 100.245C114.25 100.366 114.21 100.488 114.169 100.63C114.129 100.752 114.068 100.874 114.027 100.996C113.986 101.117 113.926 101.239 113.865 101.361C113.804 101.483 113.743 101.604 113.682 101.726C113.601 101.889 113.499 102.051 113.418 102.213C113.357 102.335 113.276 102.457 113.195 102.579C113.114 102.701 113.032 102.822 112.951 102.944C112.606 103.472 112.221 103.959 111.815 104.426C111.754 104.487 111.713 104.547 111.652 104.608C111.449 104.284 111.064 103.553 110.617 102.396C111.246 101.564 111.794 100.671 112.16 99.6763C113.154 96.9363 112.586 93.8715 113.073 90.9894C113.418 88.8988 114.311 86.8286 113.986 84.7177C113.946 84.4742 113.885 84.2103 113.824 83.9464C113.966 83.8247 114.128 83.7232 114.291 83.6623C114.413 83.6217 114.534 83.6217 114.656 83.6623C114.677 83.6623 114.717 83.6826 114.737 83.7029C114.839 83.7638 114.92 83.845 115.001 83.9261C115.874 84.9004 116.016 86.3008 115.793 87.5389Z" fill="#F8BF92"/>
<path d="M108.911 93.2829C108.708 95.8402 102.559 95.0487 102.559 95.0487L108.911 96.7333L110.434 95.0081L110.007 92.5928L108.911 93.2829Z" fill="#F3A080"/>
<path d="M214.697 184.699C215.063 186.769 228.925 182.649 228.925 182.649L231.34 185.836L225.739 188.109L220.096 194.929C220.096 194.929 220.847 196.471 221.862 198.298C221.943 198.48 222.045 198.643 222.146 198.805C222.146 198.825 222.166 198.846 222.166 198.846C222.187 198.907 222.227 198.947 222.268 199.008C222.369 199.211 222.511 199.434 222.633 199.637C223.141 200.53 223.729 201.423 224.277 202.174C224.338 202.256 224.419 202.377 224.46 202.459C224.825 202.905 225.17 203.311 225.495 203.615C225.84 203.96 226.165 204.204 226.49 204.265L231.909 200.023C231.909 200.023 241.164 202.174 242.544 201.768C243.092 201.606 244.756 199.739 246.583 197.547C247.233 196.775 247.862 195.964 248.471 195.172C248.471 195.172 248.491 195.152 248.532 195.111C248.735 194.827 248.978 194.543 249.201 194.279V194.259L249.08 194.076L248.126 192.574L247.659 191.823L247.273 191.214L247.111 190.93L246.948 190.646L241.834 182.507C241.631 182.405 241.428 182.304 241.205 182.203C240.454 181.857 239.54 181.472 238.546 181.086C237.917 180.863 237.247 180.599 236.577 180.335C234.08 179.422 231.34 178.651 229.108 178.509C228.174 178.448 227.301 178.488 226.611 178.732C221.76 180.295 214.352 182.649 214.697 184.699Z" fill="#F3A080"/>
<path d="M221.861 198.318C221.983 198.541 222.125 198.785 222.247 199.008C222.288 198.968 222.328 198.927 222.369 198.886C223.099 198.156 224.074 197.182 225.17 196.167C226.266 195.152 227.321 194.279 228.194 193.731C228.417 193.589 228.6 193.467 228.782 193.366C228.965 193.264 229.128 193.183 229.27 193.122C229.533 192.98 229.696 192.899 229.696 192.899C229.696 192.899 229.533 192.899 229.209 192.919C229.046 192.94 228.864 192.94 228.62 192.98C228.397 193.021 228.153 193.082 227.869 193.142C226.773 193.427 225.332 194.117 224.114 195.233C223.018 196.248 222.288 197.405 221.861 198.318Z" fill="#DD5B67"/>
<path d="M224.256 202.174C224.317 202.276 224.398 202.357 224.459 202.438C224.662 202.235 224.926 201.971 225.23 201.646C225.961 200.916 226.935 199.942 228.031 198.906C229.127 197.892 230.182 197.039 231.055 196.471C231.278 196.329 231.481 196.207 231.644 196.106C231.826 196.004 231.989 195.923 232.131 195.862C232.395 195.72 232.557 195.639 232.557 195.639C232.557 195.639 232.375 195.639 232.07 195.659C231.908 195.659 231.725 195.679 231.502 195.7C231.279 195.74 231.035 195.801 230.751 195.862C229.655 196.146 228.214 196.836 226.996 197.952C225.798 199.089 225.047 200.327 224.621 201.261C224.459 201.626 224.337 201.931 224.256 202.174Z" fill="#DD5B67"/>
<path d="M253.22 163.834C252.368 163.185 251.475 162.637 250.561 162.109C250.115 161.865 250.155 161.155 250.602 160.952C252.347 160.079 253.849 158.557 255.696 157.968C256.062 157.847 256.204 158.334 256.021 158.557C254.986 159.755 253.464 160.526 252.145 161.459C252.835 161.865 253.525 162.312 254.154 162.799C254.824 163.306 255.615 163.753 255.737 164.626C255.778 164.89 255.595 165.174 255.311 165.153C254.397 165.072 253.931 164.382 253.22 163.834Z" fill="#D3D3D3"/>
<path d="M258.617 191.843C254.599 195.882 251.331 198.277 251.331 198.277L239.396 178.59L243.111 171.953L258.617 191.843Z" fill="#D3D3D3"/>
<path d="M248.999 170.735C248.999 171.527 248.35 172.176 247.558 172.176C246.767 172.176 246.117 171.527 246.117 170.735C246.117 169.943 246.767 169.294 247.558 169.294C248.37 169.294 248.999 169.943 248.999 170.735Z" fill="#444444"/>
<path d="M166.085 46.276C160.484 41.5671 155.024 36.5945 149.422 31.8857C151.898 30.6476 154.395 29.4095 156.871 28.1714C160.179 33.7327 162.777 40.735 166.085 46.276Z" fill="#FFB164"/>
<path d="M165.214 52.771C160.749 53.5423 156.182 54.0497 151.717 54.8007C151.757 52.4666 151.798 50.1325 151.839 47.7983C156.081 48.9958 160.972 51.5532 165.214 52.771Z" fill="#FFB164"/>
<path d="M341.328 221.192H5.60156V404.43H341.328V221.192Z" fill="#474747"/>
<path d="M5.60156 276.034H15.1816H341.328V272.34H15.1816H5.60156V276.034Z" fill="#CCCCCC"/>
<path d="M346.93 221.192H0V232.457H346.93V221.192Z" fill="#2C2C2C"/>
<path d="M295.256 209.785C293.632 209.339 292.719 207.837 293.226 206.436L308.834 163.57C309.342 162.17 311.087 161.378 312.711 161.824C314.335 162.271 315.248 163.773 314.741 165.173L299.133 208.04C298.625 209.44 296.88 210.232 295.256 209.785Z" fill="#2C2C2C"/>
<path d="M316.608 193.67V212.383C316.608 217.255 312.021 221.212 306.378 221.212H265.095C259.432 221.212 254.865 217.255 254.865 212.383V193.67H316.608Z" fill="#CCCCCC"/>
<path d="M316.608 193.67V212.383C316.608 217.255 312.021 221.212 306.379 221.212H280.155C274.493 221.212 269.926 217.255 269.926 212.383V193.67H316.608Z" fill="#B8B8B8"/>
<path d="M161.318 221.192H146.623L147.739 204.447C147.739 202.519 149.201 200.977 151.007 200.977H156.934C158.74 200.977 160.201 202.539 160.201 204.447L161.318 221.192Z" fill="#FFB164"/>
<path d="M159.614 197.323H148.309V200.977H159.614V197.323Z" fill="#2C2C2C"/>
<path d="M175.951 221.192H161.256L162.392 204.447C162.392 202.519 163.854 200.977 165.66 200.977H171.587C173.393 200.977 174.855 202.539 174.855 204.447L175.951 221.192Z" fill="#BD4761"/>
<path d="M174.247 197.323H162.941V200.977H174.247V197.323Z" fill="#2C2C2C"/>
</svg>
