<svg width="200" height="200" viewBox="0 0 200 200" fill="none" xmlns="http://www.w3.org/2000/svg">
<rect width="200" height="200" rx="6" fill="#6D87CB"/>
<path d="M52.994 136.032H56.844C57.936 136.032 58.874 136.228 59.658 136.62C60.442 137.012 61.0393 137.581 61.45 138.328C61.87 139.075 62.08 139.966 62.08 141.002C62.08 142.047 61.8747 142.943 61.464 143.69C61.0533 144.437 60.456 145.011 59.672 145.412C58.888 145.804 57.9453 146 56.844 146H52.994V136.032ZM56.704 144.236C58.832 144.236 59.896 143.158 59.896 141.002C59.896 138.865 58.832 137.796 56.704 137.796H55.178V144.236H56.704ZM63.9348 136.032H66.1188V146H63.9348V136.032ZM76.8964 136.032V146H75.2724L70.3024 139.644V146H68.2584V136.032H69.8684L74.8384 142.374V136.032H76.8964ZM79.0351 136.032H81.2191V146H79.0351V136.032ZM91.9967 136.032V146H90.3727L85.4027 139.644V146H83.3587V136.032H84.9687L89.9387 142.374V136.032H91.9967ZM102.689 140.498V145.384C102.204 145.617 101.635 145.799 100.981 145.93C100.337 146.061 99.6747 146.126 98.9934 146.126C97.9387 146.126 97.0241 145.921 96.2494 145.51C95.4747 145.099 94.8774 144.511 94.4574 143.746C94.0467 142.981 93.8414 142.066 93.8414 141.002C93.8414 139.966 94.0467 139.065 94.4574 138.3C94.8774 137.535 95.4654 136.947 96.2214 136.536C96.9867 136.116 97.8781 135.906 98.8954 135.906C99.6141 135.906 100.281 136.004 100.897 136.2C101.523 136.396 102.036 136.671 102.437 137.026L101.737 138.594C101.271 138.258 100.818 138.015 100.379 137.866C99.9407 137.717 99.4647 137.642 98.9514 137.642C97.0287 137.642 96.0674 138.762 96.0674 141.002C96.0674 143.289 97.0707 144.432 99.0774 144.432C99.6281 144.432 100.179 144.362 100.729 144.222V142.024H98.7694V140.498H102.689ZM115.449 143.788H110.787L109.835 146H107.637L112.215 136.032H113.979L118.557 146H116.401L115.449 143.788ZM114.735 142.122L113.125 138.384L111.515 142.122H114.735ZM127.962 146H125.652L124.378 142.682C124.275 142.421 124.116 142.239 123.902 142.136C123.696 142.033 123.435 141.982 123.118 141.982H121.704V146H119.548V136.032H123.986C125.143 136.032 126.02 136.284 126.618 136.788C127.215 137.292 127.514 138.015 127.514 138.958C127.514 139.621 127.336 140.19 126.982 140.666C126.636 141.142 126.137 141.483 125.484 141.688C126.072 141.809 126.496 142.215 126.758 142.906L127.962 146ZM123.664 140.316C124.289 140.316 124.746 140.213 125.036 140.008C125.325 139.793 125.47 139.462 125.47 139.014C125.47 138.566 125.325 138.239 125.036 138.034C124.746 137.819 124.289 137.712 123.664 137.712H121.676V140.316H123.664ZM129.6 136.032H136.474V137.726H131.728V140.078H136.18V141.786H131.728V144.306H136.474V146H129.6V136.032ZM144.648 143.788H139.986L139.034 146H136.836L141.414 136.032H143.178L147.756 146H145.6L144.648 143.788ZM143.934 142.122L142.324 138.384L140.714 142.122H143.934Z" fill="white"/>
<path d="M80.5422 88.0644C80.557 88.0123 80.5745 87.9602 80.5745 87.9031V86.1489C80.5745 84.7546 79.4348 83.62 78.0337 83.62L66.772 83.6205C66.7477 83.6205 66.7256 83.6324 66.7019 83.6358L64.362 64.1628C64.2907 63.5664 63.7774 63.125 63.181 63.125C62.5246 63.125 62 63.6501 62 64.306V107.97C62 108.627 62.5251 109.151 63.181 109.151H63.2285C63.8131 109.151 64.302 108.734 64.3976 108.161L67.2136 91.5665H75.9463L78.7622 108.161C78.8578 108.734 79.3467 109.151 79.9313 109.151H79.9788C80.6353 109.151 81.1598 108.626 81.1598 107.97V89.0854C81.1598 88.6378 80.9057 88.266 80.5425 88.0651L80.5422 88.0644ZM79.3816 87.9206H67.1455L66.8472 84.814H78.0337C78.7773 84.814 79.3816 85.4132 79.3816 86.1495L79.3816 87.9206Z" fill="white"/>
<path d="M112.628 106.523C110.182 106.297 108.344 104.281 108.344 101.835C108.344 98.2559 105.815 95.2618 102.367 94.6173V86.0034H96.1756V94.6173C92.7276 95.2738 90.1987 98.2678 90.1987 101.835C90.1987 104.281 88.3612 106.297 85.928 106.523C85.2003 106.583 84.6752 107.227 84.7351 107.943C84.8064 108.623 85.3791 109.136 86.0474 109.136H86.1668C89.9606 108.779 92.8239 105.641 92.8239 101.835C92.8239 99.7114 94.2075 97.9102 96.1762 97.3256H102.368C104.325 97.8983 105.72 99.7114 105.72 101.835C105.72 105.641 108.584 108.779 112.378 109.136H112.509C113.177 109.136 113.75 108.623 113.809 107.943C113.881 107.227 113.344 106.583 112.628 106.523H112.628Z" fill="white"/>
<path d="M79.2 76.5347H95.0079V84.8141H103.55V76.5347H119.346C120.456 76.5347 121.362 75.64 121.362 74.5303C121.362 73.4206 120.456 72.514 119.346 72.514H114.323L114.324 67.7498C116.603 67.249 118.094 63.7292 118.094 58.6951C118.094 58.3731 117.831 58.0986 117.497 58.0986H109.946C109.612 58.0986 109.349 58.3731 109.349 58.6951C109.349 63.7298 110.84 67.249 113.131 67.7498V72.514H85.4411V67.7498C87.7199 67.2366 89.211 63.7292 89.211 58.6951C89.211 58.3731 88.9484 58.0986 88.6145 58.0986H81.0509C80.7289 58.0986 80.4544 58.3731 80.4544 58.6951C80.4544 63.7298 81.9574 67.249 84.2482 67.7498V72.514H79.2016C78.0919 72.514 77.1973 73.4206 77.1973 74.5303C77.1978 75.6394 78.0925 76.5347 79.2016 76.5347H79.2Z" fill="white"/>
<path d="M101.271 42.6252V34H97.2865V42.6252C94.1249 43.568 91.8223 46.6934 91.8223 49.8668H106.735C106.735 46.7052 104.421 43.5799 101.271 42.6252H101.271Z" fill="white"/>
<path d="M99.278 54.8771C101.143 54.8771 102.656 53.1744 102.656 51.0625H95.8945C95.8945 53.1744 97.4071 54.8771 99.2779 54.8771H99.278Z" fill="white"/>
<path d="M135.979 63.1257C135.382 63.1257 134.869 63.5671 134.798 64.1635L132.458 83.6365C132.434 83.6337 132.412 83.6212 132.388 83.6212H121.126C119.724 83.6212 118.585 84.7552 118.585 86.1502V87.9043C118.585 87.9615 118.603 88.013 118.617 88.0656C118.254 88.2659 118 88.6383 118 89.0859V107.971C118 108.627 118.525 109.152 119.181 109.152H119.229C119.813 109.152 120.302 108.734 120.398 108.161L123.214 91.567H131.946L134.762 108.161C134.858 108.734 135.347 109.152 135.931 109.152H135.979C136.635 109.152 137.16 108.627 137.16 107.971V64.3065C137.16 63.6501 136.635 63.1255 135.979 63.1255L135.979 63.1257ZM132.014 87.9211H119.778V86.1504C119.778 85.4141 120.383 84.8149 121.126 84.8149H132.312L132.014 87.9211Z" fill="white"/>
</svg>
