<svg width="63" height="81" viewBox="0 0 63 81" fill="none" xmlns="http://www.w3.org/2000/svg">
<path d="M4.62356 0C4.14131 0 3.67827 0.193417 3.33754 0.537967C2.99619 0.881894 2.80469 1.34941 2.80469 1.83616V15.94C2.80469 16.4274 2.99619 16.8943 3.33754 17.2388C3.67825 17.5828 4.14129 17.7762 4.62356 17.7762H57.812H57.8113C58.2936 17.7762 58.7566 17.5827 59.0974 17.2388C59.4387 16.8943 59.6302 16.4274 59.6302 15.94V1.83616C59.6302 1.34941 59.4387 0.881894 59.0974 0.537967C58.7566 0.193401 58.2936 0 57.8113 0H4.62292H4.62356Z" fill="white"/>
<path d="M4.62368 18.5298C4.14142 18.5298 3.67838 18.7232 3.33765 19.0678C2.9963 19.4123 2.8048 19.8792 2.8048 20.3666V20.0758L0.0911924 28.4882C-0.0887802 29.0466 0.00665378 29.6589 0.348649 30.1347C0.690002 30.6106 1.23632 30.8924 1.81847 30.893L60.6108 30.9827C61.1924 30.9827 61.7387 30.7028 62.0813 30.2282C62.424 29.7537 62.5213 29.142 62.3433 28.583L59.5419 19.8031C59.2998 19.0448 58.6005 18.5298 57.8107 18.5298H4.62233L4.62368 18.5298Z" fill="white"/>
<path d="M8.15417 35.4497C7.67192 35.4497 7.20952 35.6431 6.86815 35.9877C6.52744 36.3322 6.33594 36.7991 6.33594 37.2859V42.5849C6.33594 43.0723 6.52744 43.5391 6.86815 43.8837C7.2095 44.2283 7.6719 44.4217 8.15417 44.4217H17.6757C18.1579 44.4217 18.6203 44.2282 18.9617 43.8837C19.3024 43.5391 19.4945 43.0723 19.4945 42.5849V37.2859C19.4939 36.7991 19.3024 36.3322 18.9617 35.9877C18.6203 35.6431 18.1579 35.4497 17.6757 35.4497H8.15417Z" fill="white"/>
<path d="M54.2708 40.7258L46.5784 40.7508H46.579C46.0865 40.7354 45.6088 40.9224 45.2559 41.2695C44.9024 41.616 44.7038 42.0931 44.7051 42.5908C44.7057 43.0884 44.9068 43.5643 45.2623 43.9088C45.6171 44.254 46.0955 44.4391 46.588 44.4212L54.2817 44.3981C54.7678 44.4026 55.2353 44.2105 55.5805 43.8646C55.9251 43.5188 56.1185 43.0474 56.1172 42.5568C56.1153 42.0656 55.9193 41.5955 55.5728 41.2516C55.2257 40.9077 54.7569 40.7181 54.2708 40.7258L54.2708 40.7258Z" fill="white"/>
<path d="M1.84065 44.8083C1.35456 44.8019 0.886387 44.9927 0.540542 45.3379C0.194697 45.6825 0 46.1532 0 46.6444C0 47.1357 0.194697 47.6058 0.540542 47.951C0.886387 48.2962 1.35454 48.487 1.84065 48.4806H60.592C61.0781 48.487 61.5463 48.2962 61.8921 47.951C62.238 47.6058 62.4327 47.1357 62.4327 46.6444C62.4327 46.1532 62.238 45.6825 61.8921 45.3379C61.5463 44.9927 61.0781 44.8019 60.592 44.8083H1.84065Z" fill="white"/>
<path d="M1.86513 49.4072C0.860907 49.4072 0.046875 50.2289 0.046875 51.2433V78.9598C0.046875 79.9736 0.860875 80.7959 1.86513 80.7959H60.5673C61.5715 80.7959 62.3856 79.9736 62.3856 78.9598V51.2433C62.3856 50.2289 61.5716 49.4072 60.5673 49.4072H1.86513ZM35.7069 55.3825H54.3862V55.3819C54.8685 55.3813 55.3315 55.5747 55.6729 55.9192C56.0143 56.2638 56.2058 56.7313 56.2064 57.2181V70.7826C56.2058 71.27 56.0143 71.7369 55.6729 72.0815C55.3316 72.426 54.8685 72.6194 54.3862 72.6188H35.7069C34.7027 72.6188 33.8887 71.7965 33.8887 70.7827V57.2181C33.8887 56.2043 34.7027 55.382 35.7069 55.382V55.3825ZM8.0462 57.5831H26.7255V57.5825C27.7297 57.5825 28.5438 58.4048 28.5438 59.4186V72.9845C28.5438 73.999 27.7298 74.8206 26.7255 74.8206H8.0462C7.56331 74.8213 7.10027 74.6279 6.7589 74.2833C6.41755 73.9394 6.22605 73.4719 6.22605 72.9845V59.4186C6.22605 58.9312 6.41755 58.4637 6.7589 58.1198C7.10025 57.7752 7.56329 57.5818 8.0462 57.5824V57.5831Z" fill="white"/>
<path d="M37.5273 59.0562H52.5688V68.9478H37.5273V59.0562Z" fill="white"/>
<path d="M9.86523 61.2549H24.9067V71.1485H9.86523V61.2549Z" fill="white"/>
</svg>
