<svg width="200" height="200" viewBox="0 0 200 200" fill="none" xmlns="http://www.w3.org/2000/svg">
<rect width="200" height="200" rx="6" fill="#6D87CB"/>
<path d="M51.892 146.032V156H49.96V150.554L47.664 156H46.25L43.94 150.624V156H42.022V146.032H43.758L46.978 153.382L50.17 146.032H51.892ZM58.2702 156.126C56.8702 156.126 55.8062 155.767 55.0782 155.048C54.3502 154.329 53.9862 153.275 53.9862 151.884V146.032H56.1282V151.982C56.1282 152.775 56.3102 153.382 56.6742 153.802C57.0475 154.213 57.5795 154.418 58.2702 154.418C58.9609 154.418 59.4882 154.213 59.8522 153.802C60.2162 153.382 60.3982 152.775 60.3982 151.982V146.032H62.5542V151.884C62.5542 153.265 62.1855 154.32 61.4482 155.048C60.7202 155.767 59.6609 156.126 58.2702 156.126ZM68.8555 156.126C67.4555 156.126 66.3915 155.767 65.6635 155.048C64.9355 154.329 64.5715 153.275 64.5715 151.884V146.032H66.7135V151.982C66.7135 152.775 66.8955 153.382 67.2595 153.802C67.6328 154.213 68.1648 154.418 68.8555 154.418C69.5462 154.418 70.0735 154.213 70.4375 153.802C70.8015 153.382 70.9835 152.775 70.9835 151.982V146.032H73.1395V151.884C73.1395 153.265 72.7708 154.32 72.0335 155.048C71.3055 155.767 70.2462 156.126 68.8555 156.126ZM78.6988 156.126C77.9428 156.126 77.2148 156.028 76.5148 155.832C75.8242 155.627 75.2502 155.342 74.7928 154.978L75.4928 153.41C76.4542 154.082 77.5275 154.418 78.7128 154.418C79.3475 154.418 79.8328 154.32 80.1688 154.124C80.5142 153.919 80.6868 153.634 80.6868 153.27C80.6868 152.953 80.5282 152.705 80.2108 152.528C79.9028 152.341 79.3568 152.164 78.5728 151.996C77.6955 151.819 76.9955 151.604 76.4728 151.352C75.9595 151.091 75.5815 150.778 75.3388 150.414C75.1055 150.041 74.9888 149.579 74.9888 149.028C74.9888 148.431 75.1522 147.894 75.4788 147.418C75.8148 146.942 76.2815 146.573 76.8788 146.312C77.4762 146.041 78.1668 145.906 78.9508 145.906C79.6602 145.906 80.3415 146.009 80.9948 146.214C81.6482 146.419 82.1708 146.699 82.5628 147.054L81.8628 148.622C80.9855 147.95 80.0195 147.614 78.9648 147.614C78.4048 147.614 77.9568 147.726 77.6208 147.95C77.2848 148.174 77.1168 148.477 77.1168 148.86C77.1168 149.084 77.1775 149.271 77.2988 149.42C77.4295 149.569 77.6442 149.705 77.9428 149.826C78.2415 149.938 78.6662 150.05 79.2168 150.162C80.4955 150.442 81.4148 150.806 81.9748 151.254C82.5442 151.702 82.8288 152.313 82.8288 153.088C82.8288 154.021 82.4648 154.763 81.7368 155.314C81.0088 155.855 79.9962 156.126 78.6988 156.126ZM84.554 146.032H86.738V156H84.554V146.032ZM93.5536 156.126C92.5456 156.126 91.6636 155.916 90.9076 155.496C90.1609 155.067 89.5869 154.469 89.1856 153.704C88.7843 152.929 88.5836 152.029 88.5836 151.002C88.5836 149.985 88.7843 149.093 89.1856 148.328C89.5869 147.553 90.1609 146.956 90.9076 146.536C91.6636 146.116 92.5456 145.906 93.5536 145.906C94.2163 145.906 94.8463 146.009 95.4436 146.214C96.0503 146.41 96.5449 146.69 96.9276 147.054L96.2416 148.622C95.7936 148.286 95.3549 148.043 94.9256 147.894C94.5056 147.735 94.0623 147.656 93.5956 147.656C92.6996 147.656 92.0136 147.941 91.5376 148.51C91.0616 149.079 90.8236 149.91 90.8236 151.002C90.8236 152.103 91.0616 152.943 91.5376 153.522C92.0136 154.091 92.6996 154.376 93.5956 154.376C94.0623 154.376 94.5056 154.301 94.9256 154.152C95.3549 153.993 95.7936 153.746 96.2416 153.41L96.9276 154.978C96.5449 155.342 96.0503 155.627 95.4436 155.832C94.8463 156.028 94.2163 156.126 93.5536 156.126ZM106.165 156.126C105.409 156.126 104.681 156.028 103.981 155.832C103.29 155.627 102.716 155.342 102.259 154.978L102.959 153.41C103.92 154.082 104.994 154.418 106.179 154.418C106.814 154.418 107.299 154.32 107.635 154.124C107.98 153.919 108.153 153.634 108.153 153.27C108.153 152.953 107.994 152.705 107.677 152.528C107.369 152.341 106.823 152.164 106.039 151.996C105.162 151.819 104.462 151.604 103.939 151.352C103.426 151.091 103.048 150.778 102.805 150.414C102.572 150.041 102.455 149.579 102.455 149.028C102.455 148.431 102.618 147.894 102.945 147.418C103.281 146.942 103.748 146.573 104.345 146.312C104.942 146.041 105.633 145.906 106.417 145.906C107.126 145.906 107.808 146.009 108.461 146.214C109.114 146.419 109.637 146.699 110.029 147.054L109.329 148.622C108.452 147.95 107.486 147.614 106.431 147.614C105.871 147.614 105.423 147.726 105.087 147.95C104.751 148.174 104.583 148.477 104.583 148.86C104.583 149.084 104.644 149.271 104.765 149.42C104.896 149.569 105.11 149.705 105.409 149.826C105.708 149.938 106.132 150.05 106.683 150.162C107.962 150.442 108.881 150.806 109.441 151.254C110.01 151.702 110.295 152.313 110.295 153.088C110.295 154.021 109.931 154.763 109.203 155.314C108.475 155.855 107.462 156.126 106.165 156.126ZM116.339 152.136V156H114.155V152.122L110.039 146.032H112.517L115.233 150.288L117.977 146.032H120.469L116.339 152.136ZM124.082 156.126C123.326 156.126 122.598 156.028 121.898 155.832C121.207 155.627 120.633 155.342 120.176 154.978L120.876 153.41C121.837 154.082 122.91 154.418 124.096 154.418C124.73 154.418 125.216 154.32 125.552 154.124C125.897 153.919 126.07 153.634 126.07 153.27C126.07 152.953 125.911 152.705 125.594 152.528C125.286 152.341 124.74 152.164 123.956 151.996C123.078 151.819 122.378 151.604 121.856 151.352C121.342 151.091 120.964 150.778 120.722 150.414C120.488 150.041 120.372 149.579 120.372 149.028C120.372 148.431 120.535 147.894 120.862 147.418C121.198 146.942 121.664 146.573 122.262 146.312C122.859 146.041 123.55 145.906 124.334 145.906C125.043 145.906 125.724 146.009 126.378 146.214C127.031 146.419 127.554 146.699 127.946 147.054L127.246 148.622C126.368 147.95 125.402 147.614 124.348 147.614C123.788 147.614 123.34 147.726 123.004 147.95C122.668 148.174 122.5 148.477 122.5 148.86C122.5 149.084 122.56 149.271 122.682 149.42C122.812 149.569 123.027 149.705 123.326 149.826C123.624 149.938 124.049 150.05 124.6 150.162C125.878 150.442 126.798 150.806 127.358 151.254C127.927 151.702 128.212 152.313 128.212 153.088C128.212 154.021 127.848 154.763 127.12 155.314C126.392 155.855 125.379 156.126 124.082 156.126ZM132.028 147.81H128.906V146.032H137.362V147.81H134.24V156H132.028V147.81ZM138.663 146.032H145.537V147.726H140.791V150.078H145.243V151.786H140.791V154.306H145.537V156H138.663V146.032ZM157.082 146.032V156H155.15V150.554L152.854 156H151.44L149.13 150.624V156H147.212V146.032H148.948L152.168 153.382L155.36 146.032H157.082Z" fill="white"/>
<path d="M121.443 42C120.041 42 118.93 43.0904 118.836 44.4683L120.576 44.974H138.171L139.911 44.4683C139.816 43.0911 138.706 42 137.304 42H121.443Z" fill="white"/>
<path d="M118.801 47.209V94.8689H129.375V113.373H137.305C138.77 113.373 139.949 112.194 139.949 110.73V47.209L138.73 47.5601C138.612 47.5967 138.488 47.6161 138.364 47.6185H120.385C120.261 47.6161 120.137 47.5967 120.019 47.5601L118.801 47.209ZM129.375 61.8255V61.8261C130.426 61.8261 131.435 62.2439 132.179 62.9874C132.922 63.7309 133.34 64.7393 133.34 65.7913C133.34 66.8428 132.922 67.8512 132.179 68.5947C131.435 69.3388 130.426 69.7566 129.375 69.7566C128.323 69.7566 127.314 69.3388 126.571 68.5947C125.827 67.8513 125.41 66.8428 125.41 65.7913C125.41 64.7392 125.827 63.7307 126.571 62.9874C127.314 62.244 128.323 61.8261 129.375 61.8261V61.8255ZM129.375 77.6865V77.6871C130.952 77.6871 132.465 78.3137 133.581 79.4289C134.696 80.5441 135.323 82.057 135.323 83.6349C135.323 85.2121 134.696 86.7251 133.581 87.8404C132.465 88.9562 130.952 89.5828 129.375 89.5828C127.797 89.5828 126.285 88.9562 125.169 87.8404C124.054 86.7251 123.427 85.2123 123.427 83.6349C123.427 82.0571 124.054 80.5442 125.169 79.4289C126.285 78.3137 127.797 77.6871 129.375 77.6871V77.6865Z" fill="white"/>
<path d="M128.053 83.6357C128.053 83.9862 128.192 84.322 128.44 84.5698C128.688 84.8182 129.024 84.9575 129.374 84.9575C129.725 84.9575 130.061 84.8182 130.309 84.5698C130.557 84.322 130.696 83.9862 130.696 83.6357C130.696 83.2846 130.557 82.9489 130.309 82.701C130.061 82.4532 129.725 82.314 129.374 82.314C128.645 82.314 128.053 82.9052 128.053 83.6357Z" fill="white"/>
<path d="M60.6427 42C59.2407 42 58.1296 43.0904 58.0352 44.4683L59.7753 44.974H77.3704L79.1106 44.4683C79.0156 43.0911 77.9057 42 76.503 42H60.6427Z" fill="white"/>
<path d="M58 47.209V110.73C58 112.194 59.179 113.373 60.6435 113.373H68.574V94.8689H79.1479V47.209L77.9295 47.5601C77.8109 47.5967 77.6875 47.6161 77.563 47.6185H59.5843C59.4597 47.6161 59.3364 47.5967 59.2178 47.5601L58 47.209ZM68.574 61.8255V61.8261C69.6255 61.8261 70.6345 62.2439 71.3779 62.9874C72.1212 63.7309 72.5391 64.7393 72.5391 65.7913C72.5391 66.8428 72.1214 67.8512 71.3779 68.5947C70.6344 69.3388 69.6253 69.7566 68.574 69.7566C67.5226 69.7566 66.5134 69.3388 65.7701 68.5947C65.0266 67.8513 64.6088 66.8428 64.6088 65.7913C64.6088 64.7392 65.0266 63.7307 65.7701 62.9874C66.5135 62.244 67.5226 61.8261 68.574 61.8261V61.8255ZM68.574 77.6865V77.6871C70.1512 77.6871 71.6641 78.3137 72.78 79.4289C73.8952 80.5441 74.5218 82.057 74.5218 83.6349C74.5218 85.2121 73.8952 86.7251 72.78 87.8404C71.6642 88.9562 70.1513 89.5828 68.574 89.5828C66.9966 89.5828 65.4838 88.9562 64.3679 87.8404C63.2527 86.7251 62.6261 85.2123 62.6261 83.6349C62.6261 82.0571 63.2528 80.5442 64.3679 79.4289C65.4838 78.3137 66.9966 77.6871 68.574 77.6871V77.6865Z" fill="white"/>
<path d="M69.8954 83.6357C69.8954 83.9862 69.7562 84.322 69.5084 84.5698C69.2605 84.8182 68.9242 84.9575 68.5737 84.9575C67.8438 84.9575 67.252 84.3656 67.252 83.6357C67.252 82.9052 67.8438 82.314 68.5737 82.314C68.9242 82.314 69.2605 82.4532 69.5084 82.701C69.7562 82.9489 69.8954 83.2846 69.8954 83.6357Z" fill="white"/>
<path d="M71.2168 97.5132V113.374H126.73V97.5132H71.2168ZM79.1473 102.8H97.6517C99.1163 102.8 100.295 103.979 100.295 105.444C100.295 106.908 99.1163 108.087 97.6517 108.087H79.1473C77.6827 108.087 76.5038 106.908 76.5038 105.444C76.5038 103.979 77.6827 102.8 79.1473 102.8ZM108.226 102.8C108.927 102.8 109.599 103.079 110.095 103.574C110.591 104.07 110.869 104.742 110.869 105.444C110.869 106.145 110.591 106.817 110.095 107.312C109.599 107.809 108.927 108.087 108.226 108.087C107.525 108.087 106.852 107.809 106.356 107.312C105.861 106.817 105.582 106.145 105.582 105.444C105.582 104.742 105.861 104.07 106.356 103.574C106.852 103.079 107.525 102.8 108.226 102.8ZM118.8 102.8C119.501 102.8 120.173 103.079 120.669 103.574C121.165 104.07 121.443 104.742 121.443 105.444C121.443 106.145 121.165 106.817 120.669 107.312C120.173 107.809 119.501 108.087 118.8 108.087C118.099 108.087 117.426 107.809 116.93 107.312C116.435 106.817 116.156 106.145 116.156 105.444C116.156 104.742 116.435 104.07 116.93 103.574C117.426 103.079 118.099 102.8 118.8 102.8Z" fill="white"/>
<path d="M61.9648 116.018V118.661H130.696V116.018H61.9648Z" fill="white"/>
<path d="M133.34 116.018V118.661H135.983V116.018H133.34Z" fill="white"/>
<path d="M128.053 65.7915C128.053 66.142 128.192 66.4777 128.44 66.7255C128.688 66.974 129.024 67.1132 129.374 67.1132C129.725 67.1132 130.061 66.974 130.309 66.7255C130.557 66.4777 130.696 66.142 130.696 65.7915C130.696 65.4404 130.557 65.1046 130.309 64.8568C130.061 64.609 129.725 64.4697 129.374 64.4697C128.645 64.4697 128.053 65.061 128.053 65.7915Z" fill="white"/>
<path d="M67.252 65.7915C67.252 66.142 67.3912 66.4777 67.639 66.7255C67.8869 66.974 68.2232 67.1132 68.5737 67.1132C68.9242 67.1132 69.2605 66.974 69.5084 66.7255C69.7562 66.4777 69.8954 66.142 69.8954 65.7915C69.8954 65.4404 69.7562 65.1046 69.5084 64.8568C69.2605 64.609 68.9242 64.4697 68.5737 64.4697C67.8438 64.4697 67.252 65.061 67.252 65.7915Z" fill="white"/>
</svg>
