<svg width="200" height="200" viewBox="0 0 200 200" fill="none" xmlns="http://www.w3.org/2000/svg">
<rect width="200" height="200" rx="6" fill="#6D87CB"/>
<path d="M123.312 112.98H76.1847C75.2509 112.98 74.5195 113.706 74.5195 114.634V124.415C82.3139 128.088 90.5854 130.221 99.3829 130.221C108.408 130.221 116.956 127.962 124.977 124.232V114.634C124.977 113.722 124.23 112.98 123.312 112.98H123.312Z" fill="white"/>
<path d="M115.746 110.823H121.368V99.5479C119.575 98.6488 117.694 97.8077 115.746 97.0068V110.823Z" fill="white"/>
<path d="M78.1289 110.823H83.7517V97.0635C81.8579 97.8996 79.9796 98.774 78.1289 99.71V110.823Z" fill="white"/>
<path d="M136.467 116.962C135.212 109.28 130.195 104.419 123.525 100.69V110.845C125.532 110.959 127.133 112.607 127.133 114.634V123.187C130.165 121.661 133.121 119.935 135.993 118.041C136.353 117.796 136.54 117.379 136.468 116.962L136.467 116.962Z" fill="white"/>
<path d="M75.9717 100.839C74.8821 101.429 73.801 102.037 72.7361 102.683C67.5161 105.861 63.979 111.066 63.0153 116.962C62.9431 117.379 63.1307 117.782 63.4755 118.026C66.3648 120.013 69.3278 121.795 72.3622 123.353V114.634C72.3622 112.606 73.9651 110.958 75.9723 110.845L75.9717 100.839Z" fill="white"/>
<path d="M89.4181 53.3739H110.082C111.52 53.3739 112.901 52.8415 113.979 51.8786L114.482 51.4326L112.282 43.4224C112.052 42.4156 111.477 41.5534 110.714 40.9487C109.938 40.3455 108.975 40 107.939 40C106.257 40 104.804 41.0068 103.956 42.4447C103.107 43.8967 101.54 44.8603 99.7424 44.8603C97.9448 44.8603 96.3774 43.8967 95.5292 42.4447C94.681 41.0067 93.2282 40 91.5459 40H91.5318C89.4608 40 87.6632 41.4089 87.1889 43.4225L85.0176 51.3457L85.5493 51.9064C86.5844 52.8417 87.9798 53.3741 89.4178 53.3741L89.4181 53.3739Z" fill="white"/>
<path d="M89.4188 59.6865H110.068C111.923 59.6865 113.778 59.1973 115.389 58.2627C115.676 58.1041 115.935 57.9321 116.209 57.7303L115.115 53.7322C113.707 54.8969 111.923 55.5298 110.082 55.5298L89.4183 55.5305C87.5776 55.5305 85.7949 54.8976 84.371 53.7188L83.2637 57.731C83.537 57.9179 83.7961 58.1048 84.0835 58.2634C85.7084 59.198 87.5633 59.6865 89.4183 59.6865L89.4188 59.6865Z" fill="white"/>
<path d="M76.4471 63.1959C78.1038 64.7039 79.9927 65.8819 82.0226 66.728C81.9709 66.854 81.9398 66.9914 81.9398 67.1365V70.5824C80.0048 70.845 78.5032 72.8082 78.5032 75.2176C78.5032 77.67 80.0409 79.6525 82.0107 79.8761C82.3519 84.277 84.2558 88.3331 87.4863 91.4121C87.6222 91.5417 87.7688 91.6535 87.9075 91.7781V95.3648C87.4431 95.5411 86.7507 95.8101 85.9089 96.1507V110.825H113.591V96.1422C112.924 95.8809 112.253 95.6211 111.577 95.3641V91.7009C114.813 88.7344 116.983 84.5685 117.448 79.8787C119.43 79.6706 120.982 77.6811 120.982 75.2173C120.982 72.8072 119.481 70.8447 117.545 70.5821V67.1362C117.545 66.9911 117.515 66.8544 117.462 66.7277C119.492 65.8816 121.381 64.7035 123.038 63.1956L126.417 60.1329C127.711 58.9392 127.812 56.9116 126.618 55.6173C126 54.956 125.166 54.5822 124.246 54.5822C123.441 54.5822 122.678 54.8838 122.088 55.4162L118.709 58.4938C116.39 60.6198 113.293 61.844 110.066 61.844H89.4188C86.1961 61.844 83.0986 60.622 80.7763 58.4938L77.397 55.4162C76.0723 54.2204 74.0573 54.3302 72.8814 55.6173C71.6877 56.9115 71.7741 58.9392 73.0683 60.1329L76.4471 63.1959ZM109.421 96.112C109.421 101.418 105.078 105.732 99.7436 105.732C94.4088 105.732 90.066 101.418 90.066 96.112V93.452C92.9255 95.3211 96.2461 96.3186 99.721 96.3186C100.013 96.3186 100.305 96.3116 100.599 96.2974C103.858 96.1459 106.864 95.0839 109.422 93.3784L109.421 96.112ZM110.068 68.2291C111.896 68.2291 113.681 67.9607 115.389 67.4673V77.9781C115.389 86.6546 108.848 93.7558 100.497 94.1431C91.8212 94.5332 84.0978 87.6706 84.0978 78.4526V67.4667C85.8069 67.9602 87.5909 68.2285 89.4183 68.2285L110.068 68.2291Z" fill="white"/>
<path d="M91.9083 75.8577H94.2221C94.8176 75.8577 95.3004 75.3749 95.3004 74.7794C95.3004 74.184 94.8176 73.7012 94.2221 73.7012H91.9083C91.3129 73.7012 90.8301 74.184 90.8301 74.7794C90.8294 75.3749 91.3129 75.8577 91.9083 75.8577Z" fill="white"/>
<path d="M105.266 75.8577H107.58C108.175 75.8577 108.658 75.3749 108.658 74.7794C108.658 74.184 108.175 73.7012 107.58 73.7012H105.266C104.67 73.7012 104.188 74.184 104.188 74.7794C104.187 75.3749 104.67 75.8577 105.266 75.8577Z" fill="white"/>
<path d="M99.7438 83.109C100.53 83.109 101.316 82.8655 101.987 82.3776C102.468 82.0272 102.574 81.3525 102.224 80.871C101.873 80.3882 101.197 80.282 100.717 80.6339C100.135 81.0572 99.3523 81.0558 98.7718 80.6339C98.2904 80.282 97.6149 80.3882 97.2652 80.871C96.9147 81.3525 97.0209 82.0272 97.5023 82.3776C98.1721 82.8655 98.958 83.109 99.7438 83.109H99.7438Z" fill="white"/>
<path d="M94.7913 86.2862C94.2801 86.592 94.113 87.2547 94.4181 87.7659C95.163 89.0112 96.3999 89.7554 97.7266 89.7554H101.764C103.09 89.7554 104.327 89.012 105.072 87.7659C105.377 87.2547 105.21 86.5927 104.699 86.2862C104.188 85.9831 103.526 86.1481 103.219 86.6593C102.863 87.2561 102.332 87.5981 101.763 87.5981H97.7259C97.1567 87.5981 96.6257 87.2561 96.2696 86.6593C95.9651 86.1474 95.3032 85.9817 94.7913 86.2862H94.7913Z" fill="white"/>
<path d="M28.67 156.126C27.662 156.126 26.78 155.916 26.024 155.496C25.2773 155.067 24.7033 154.469 24.302 153.704C23.9007 152.929 23.7 152.029 23.7 151.002C23.7 149.985 23.9007 149.093 24.302 148.328C24.7033 147.553 25.2773 146.956 26.024 146.536C26.78 146.116 27.662 145.906 28.67 145.906C29.3327 145.906 29.9627 146.009 30.56 146.214C31.1667 146.41 31.6613 146.69 32.044 147.054L31.358 148.622C30.91 148.286 30.4713 148.043 30.042 147.894C29.622 147.735 29.1787 147.656 28.712 147.656C27.816 147.656 27.13 147.941 26.654 148.51C26.178 149.079 25.94 149.91 25.94 151.002C25.94 152.103 26.178 152.943 26.654 153.522C27.13 154.091 27.816 154.376 28.712 154.376C29.1787 154.376 29.622 154.301 30.042 154.152C30.4713 153.993 30.91 153.746 31.358 153.41L32.044 154.978C31.6613 155.342 31.1667 155.627 30.56 155.832C29.9627 156.028 29.3327 156.126 28.67 156.126ZM40.2316 153.788H35.5696L34.6176 156H32.4196L36.9976 146.032H38.7616L43.3396 156H41.1836L40.2316 153.788ZM39.5176 152.122L37.9076 148.384L36.2976 152.122H39.5176ZM52.7446 156H50.4346L49.1606 152.682C49.058 152.421 48.8993 152.239 48.6846 152.136C48.4793 152.033 48.218 151.982 47.9006 151.982H46.4866V156H44.3306V146.032H48.7686C49.926 146.032 50.8033 146.284 51.4006 146.788C51.998 147.292 52.2966 148.015 52.2966 148.958C52.2966 149.621 52.1193 150.19 51.7646 150.666C51.4193 151.142 50.92 151.483 50.2666 151.688C50.8546 151.809 51.2793 152.215 51.5406 152.906L52.7446 156ZM48.4466 150.316C49.072 150.316 49.5293 150.213 49.8186 150.008C50.108 149.793 50.2526 149.462 50.2526 149.014C50.2526 148.566 50.108 148.239 49.8186 148.034C49.5293 147.819 49.072 147.712 48.4466 147.712H46.4586V150.316H48.4466ZM54.3828 146.032H61.2568V147.726H56.5108V150.078H60.9628V151.786H56.5108V154.306H61.2568V156H54.3828V146.032ZM65.309 147.81H62.187V146.032H70.643V147.81H67.521V156H65.309V147.81ZM77.3502 153.788H72.6882L71.7362 156H69.5382L74.1162 146.032H75.8802L80.4582 156H78.3022L77.3502 153.788ZM76.6362 152.122L75.0262 148.384L73.4162 152.122H76.6362ZM87.9732 156L83.6332 151.394V156H81.4492V146.032H83.6332V150.414L87.8192 146.032H90.4232L85.7892 150.792L90.6052 156H87.9732ZM91.1732 146.032H98.0472V147.726H93.3012V150.078H97.7532V151.786H93.3012V154.306H98.0472V156H91.1732V146.032ZM108.108 156H105.798L104.524 152.682C104.421 152.421 104.263 152.239 104.048 152.136C103.843 152.033 103.581 151.982 103.264 151.982H101.85V156H99.6941V146.032H104.132C105.289 146.032 106.167 146.284 106.764 146.788C107.361 147.292 107.66 148.015 107.66 148.958C107.66 149.621 107.483 150.19 107.128 150.666C106.783 151.142 106.283 151.483 105.63 151.688C106.218 151.809 106.643 152.215 106.904 152.906L108.108 156ZM103.81 150.316C104.435 150.316 104.893 150.213 105.182 150.008C105.471 149.793 105.616 149.462 105.616 149.014C105.616 148.566 105.471 148.239 105.182 148.034C104.893 147.819 104.435 147.712 103.81 147.712H101.822V150.316H103.81ZM118.402 156.126C117.412 156.126 116.549 155.921 115.812 155.51C115.084 155.09 114.519 154.493 114.118 153.718C113.726 152.943 113.53 152.038 113.53 151.002C113.53 149.966 113.726 149.065 114.118 148.3C114.519 147.535 115.084 146.947 115.812 146.536C116.549 146.116 117.412 145.906 118.402 145.906C119.391 145.906 120.25 146.116 120.978 146.536C121.706 146.947 122.266 147.535 122.658 148.3C123.05 149.065 123.246 149.966 123.246 151.002C123.246 152.038 123.05 152.943 122.658 153.718C122.266 154.493 121.706 155.09 120.978 155.51C120.25 155.921 119.391 156.126 118.402 156.126ZM118.402 154.418C119.242 154.418 119.895 154.124 120.362 153.536C120.838 152.948 121.076 152.103 121.076 151.002C121.076 149.901 120.838 149.061 120.362 148.482C119.895 147.903 119.242 147.614 118.402 147.614C117.562 147.614 116.904 147.903 116.428 148.482C115.961 149.061 115.728 149.901 115.728 151.002C115.728 152.113 115.961 152.962 116.428 153.55C116.904 154.129 117.562 154.418 118.402 154.418ZM133.731 146.032V156H132.107L127.137 149.644V156H125.093V146.032H126.703L131.673 152.374V146.032H133.731ZM144.623 156.126C143.615 156.126 142.733 155.916 141.977 155.496C141.23 155.067 140.656 154.469 140.255 153.704C139.853 152.929 139.653 152.029 139.653 151.002C139.653 149.985 139.853 149.093 140.255 148.328C140.656 147.553 141.23 146.956 141.977 146.536C142.733 146.116 143.615 145.906 144.623 145.906C145.285 145.906 145.915 146.009 146.513 146.214C147.119 146.41 147.614 146.69 147.997 147.054L147.311 148.622C146.863 148.286 146.424 148.043 145.995 147.894C145.575 147.735 145.131 147.656 144.665 147.656C143.769 147.656 143.083 147.941 142.607 148.51C142.131 149.079 141.893 149.91 141.893 151.002C141.893 152.103 142.131 152.943 142.607 153.522C143.083 154.091 143.769 154.376 144.665 154.376C145.131 154.376 145.575 154.301 145.995 154.152C146.424 153.993 146.863 153.746 147.311 153.41L147.997 154.978C147.614 155.342 147.119 155.627 146.513 155.832C145.915 156.028 145.285 156.126 144.623 156.126ZM156.184 153.788H151.522L150.57 156H148.372L152.95 146.032H154.714L159.292 156H157.136L156.184 153.788ZM155.47 152.122L153.86 148.384L152.25 152.122H155.47ZM160.283 146.032H162.467V154.222H166.919V156H160.283V146.032ZM168.394 146.032H170.578V154.222H175.03V156H168.394V146.032Z" fill="white"/>
</svg>
