<svg width="84" height="83" viewBox="0 0 84 83" fill="none" xmlns="http://www.w3.org/2000/svg">
<path d="M59.1687 48.4244H23.4326C21.6197 48.4244 20.0664 49.9783 20.0664 51.7906C20.0664 53.6035 21.6203 55.1568 23.4326 55.1568H38.4522V80.1453H32.8846C32.1076 80.1453 31.5896 80.7928 31.5896 81.4403C31.5896 82.0877 32.2371 82.7352 32.8846 82.7352H50.7518C51.5288 82.7352 52.0468 82.0877 52.0468 81.4403C52.0468 80.7928 51.3993 80.1453 50.7518 80.1453H44.1488L44.1482 55.1568H59.1678C60.9807 55.1568 62.534 53.6029 62.534 51.7906C62.534 49.9777 60.9807 48.4238 59.1678 48.4238L59.1687 48.4244Z" fill="white"/>
<path d="M38.4551 30.1699H44.1522V45.7074H38.4551V30.1699Z" fill="white"/>
<path d="M29.2623 27.4496H53.3446C53.4741 27.1906 53.4741 26.8021 53.4741 26.4136C52.9561 11.9121 47.518 0.130124 41.3034 0C35.0883 0 29.6507 11.7823 29.1328 26.4136C29.1328 26.8021 29.1328 27.1906 29.2623 27.4496H29.2623Z" fill="white"/>
<path d="M13.5949 27.4495H26.5426C26.5426 27.061 26.4131 26.6725 26.4131 26.284C26.8016 15.1493 29.9088 5.82667 34.311 0.906738C22.6582 3.88457 13.5949 13.9839 12.5586 26.4142C12.5586 26.8026 12.6881 27.0616 12.8176 27.1911C12.9471 27.3206 13.2061 27.4501 13.5946 27.4501L13.5949 27.4495Z" fill="white"/>
<path d="M56.0618 27.4496H69.0094C69.2684 27.4496 69.5274 27.3201 69.7864 27.1906C69.9159 27.0611 70.0454 26.8022 70.0454 26.4137C69.0094 13.984 59.946 3.88516 48.293 0.90625C52.6952 5.69699 55.8025 15.0193 56.1909 26.2836C56.1909 26.672 56.1909 27.0605 56.0614 27.449L56.0618 27.4496Z" fill="white"/>
<path d="M80.9228 55.1582H67.4571C65.9032 55.1582 64.7383 56.3236 64.7383 57.877V81.4419H69.3995V76.3921H79.1105V81.4419H83.7717V57.877C83.6416 56.4532 82.4768 55.1582 80.9228 55.1582ZM79.1099 73.8031H69.3989V62.5389H79.1099V73.8031Z" fill="white"/>
<path d="M16.1845 55.1582H2.71882C1.16492 55.1582 0 56.3236 0 57.877V81.4419H4.66123V76.3921H14.3722V81.4419H19.0334V57.877C18.9033 56.4532 17.609 55.1582 16.1845 55.1582ZM14.2421 73.8031H4.53111V62.5389H14.2421V73.8031Z" fill="white"/>
</svg>
