<svg width="200" height="200" viewBox="0 0 200 200" fill="none" xmlns="http://www.w3.org/2000/svg">
<rect width="200" height="200" rx="6" fill="#6D87CB"/>
<path d="M24.9149 146.126C23.9256 146.126 23.0622 145.921 22.3249 145.51C21.5969 145.09 21.0322 144.493 20.6309 143.718C20.2389 142.943 20.0429 142.038 20.0429 141.002C20.0429 139.966 20.2389 139.065 20.6309 138.3C21.0322 137.535 21.5969 136.947 22.3249 136.536C23.0622 136.116 23.9256 135.906 24.9149 135.906C25.9042 135.906 26.7629 136.116 27.4909 136.536C28.2189 136.947 28.7789 137.535 29.1709 138.3C29.5629 139.065 29.7589 139.966 29.7589 141.002C29.7589 142.038 29.5629 142.943 29.1709 143.718C28.7789 144.493 28.2189 145.09 27.4909 145.51C26.7629 145.921 25.9042 146.126 24.9149 146.126ZM24.9149 144.418C25.7549 144.418 26.4082 144.124 26.8749 143.536C27.3509 142.948 27.5889 142.103 27.5889 141.002C27.5889 139.901 27.3509 139.061 26.8749 138.482C26.4082 137.903 25.7549 137.614 24.9149 137.614C24.0749 137.614 23.4169 137.903 22.9409 138.482C22.4742 139.061 22.2409 139.901 22.2409 141.002C22.2409 142.113 22.4742 142.962 22.9409 143.55C23.4169 144.129 24.0749 144.418 24.9149 144.418ZM35.8338 146.126C34.4338 146.126 33.3698 145.767 32.6418 145.048C31.9138 144.329 31.5498 143.275 31.5498 141.884V136.032H33.6918V141.982C33.6918 142.775 33.8738 143.382 34.2378 143.802C34.6111 144.213 35.1431 144.418 35.8338 144.418C36.5245 144.418 37.0518 144.213 37.4158 143.802C37.7798 143.382 37.9618 142.775 37.9618 141.982V136.032H40.1178V141.884C40.1178 143.265 39.7491 144.32 39.0118 145.048C38.2838 145.767 37.2245 146.126 35.8338 146.126ZM44.4871 137.81H41.3651V136.032H49.8211V137.81H46.6991V146H44.4871V137.81ZM51.1221 136.032H54.9721C56.0641 136.032 57.0021 136.228 57.7861 136.62C58.5701 137.012 59.1675 137.581 59.5781 138.328C59.9981 139.075 60.2081 139.966 60.2081 141.002C60.2081 142.047 60.0028 142.943 59.5921 143.69C59.1815 144.437 58.5841 145.011 57.8001 145.412C57.0161 145.804 56.0735 146 54.9721 146H51.1221V136.032ZM54.8321 144.236C56.9601 144.236 58.0241 143.158 58.0241 141.002C58.0241 138.865 56.9601 137.796 54.8321 137.796H53.3061V144.236H54.8321ZM66.6409 146.126C65.6516 146.126 64.7882 145.921 64.0509 145.51C63.3229 145.09 62.7582 144.493 62.3569 143.718C61.9649 142.943 61.7689 142.038 61.7689 141.002C61.7689 139.966 61.9649 139.065 62.3569 138.3C62.7582 137.535 63.3229 136.947 64.0509 136.536C64.7882 136.116 65.6516 135.906 66.6409 135.906C67.6302 135.906 68.4889 136.116 69.2169 136.536C69.9449 136.947 70.5049 137.535 70.8969 138.3C71.2889 139.065 71.4849 139.966 71.4849 141.002C71.4849 142.038 71.2889 142.943 70.8969 143.718C70.5049 144.493 69.9449 145.09 69.2169 145.51C68.4889 145.921 67.6302 146.126 66.6409 146.126ZM66.6409 144.418C67.4809 144.418 68.1342 144.124 68.6009 143.536C69.0769 142.948 69.3149 142.103 69.3149 141.002C69.3149 139.901 69.0769 139.061 68.6009 138.482C68.1342 137.903 67.4809 137.614 66.6409 137.614C65.8009 137.614 65.1429 137.903 64.6669 138.482C64.2002 139.061 63.9669 139.901 63.9669 141.002C63.9669 142.113 64.2002 142.962 64.6669 143.55C65.1429 144.129 65.8009 144.418 66.6409 144.418ZM77.9098 146.126C76.9205 146.126 76.0571 145.921 75.3198 145.51C74.5918 145.09 74.0271 144.493 73.6258 143.718C73.2338 142.943 73.0378 142.038 73.0378 141.002C73.0378 139.966 73.2338 139.065 73.6258 138.3C74.0271 137.535 74.5918 136.947 75.3198 136.536C76.0571 136.116 76.9205 135.906 77.9098 135.906C78.8991 135.906 79.7578 136.116 80.4858 136.536C81.2138 136.947 81.7738 137.535 82.1658 138.3C82.5578 139.065 82.7538 139.966 82.7538 141.002C82.7538 142.038 82.5578 142.943 82.1658 143.718C81.7738 144.493 81.2138 145.09 80.4858 145.51C79.7578 145.921 78.8991 146.126 77.9098 146.126ZM77.9098 144.418C78.7498 144.418 79.4031 144.124 79.8698 143.536C80.3458 142.948 80.5838 142.103 80.5838 141.002C80.5838 139.901 80.3458 139.061 79.8698 138.482C79.4031 137.903 78.7498 137.614 77.9098 137.614C77.0698 137.614 76.4118 137.903 75.9358 138.482C75.4691 139.061 75.2358 139.901 75.2358 141.002C75.2358 142.113 75.4691 142.962 75.9358 143.55C76.4118 144.129 77.0698 144.418 77.9098 144.418ZM93.0147 146H90.7047L89.4307 142.682C89.328 142.421 89.1694 142.239 88.9547 142.136C88.7494 142.033 88.488 141.982 88.1707 141.982H86.7567V146H84.6007V136.032H89.0387C90.196 136.032 91.0734 136.284 91.6707 136.788C92.268 137.292 92.5667 138.015 92.5667 138.958C92.5667 139.621 92.3894 140.19 92.0347 140.666C91.6894 141.142 91.19 141.483 90.5367 141.688C91.1247 141.809 91.5494 142.215 91.8107 142.906L93.0147 146ZM88.7167 140.316C89.342 140.316 89.7994 140.213 90.0887 140.008C90.378 139.793 90.5227 139.462 90.5227 139.014C90.5227 138.566 90.378 138.239 90.0887 138.034C89.7994 137.819 89.342 137.712 88.7167 137.712H86.7287V140.316H88.7167ZM98.7303 136.032H105.45V137.754H100.886V140.064H105.17V141.8H100.886V146H98.7303V136.032ZM111.192 146.126C109.792 146.126 108.728 145.767 108 145.048C107.272 144.329 106.908 143.275 106.908 141.884V136.032H109.05V141.982C109.05 142.775 109.232 143.382 109.596 143.802C109.969 144.213 110.501 144.418 111.192 144.418C111.883 144.418 112.41 144.213 112.774 143.802C113.138 143.382 113.32 142.775 113.32 141.982V136.032H115.476V141.884C115.476 143.265 115.107 144.32 114.37 145.048C113.642 145.767 112.583 146.126 111.192 146.126ZM125.963 146H123.653L122.379 142.682C122.277 142.421 122.118 142.239 121.903 142.136C121.698 142.033 121.437 141.982 121.119 141.982H119.705V146H117.549V136.032H121.987C123.145 136.032 124.022 136.284 124.619 136.788C125.217 137.292 125.515 138.015 125.515 138.958C125.515 139.621 125.338 140.19 124.983 140.666C124.638 141.142 124.139 141.483 123.485 141.688C124.073 141.809 124.498 142.215 124.759 142.906L125.963 146ZM121.665 140.316C122.291 140.316 122.748 140.213 123.037 140.008C123.327 139.793 123.471 139.462 123.471 139.014C123.471 138.566 123.327 138.239 123.037 138.034C122.748 137.819 122.291 137.712 121.665 137.712H119.677V140.316H121.665ZM136.239 136.032V146H134.615L129.645 139.644V146H127.601V136.032H129.211L134.181 142.374V136.032H136.239ZM138.378 136.032H140.562V146H138.378V136.032ZM144.998 137.81H141.876V136.032H150.332V137.81H147.21V146H144.998V137.81ZM155.861 146.126C154.461 146.126 153.397 145.767 152.669 145.048C151.941 144.329 151.577 143.275 151.577 141.884V136.032H153.719V141.982C153.719 142.775 153.901 143.382 154.265 143.802C154.638 144.213 155.17 144.418 155.861 144.418C156.551 144.418 157.079 144.213 157.443 143.802C157.807 143.382 157.989 142.775 157.989 141.982V136.032H160.145V141.884C160.145 143.265 159.776 144.32 159.039 145.048C158.311 145.767 157.251 146.126 155.861 146.126ZM170.632 146H168.322L167.048 142.682C166.945 142.421 166.787 142.239 166.572 142.136C166.367 142.033 166.105 141.982 165.788 141.982H164.374V146H162.218V136.032H166.656C167.813 136.032 168.691 136.284 169.288 136.788C169.885 137.292 170.184 138.015 170.184 138.958C170.184 139.621 170.007 140.19 169.652 140.666C169.307 141.142 168.807 141.483 168.154 141.688C168.742 141.809 169.167 142.215 169.428 142.906L170.632 146ZM166.334 140.316C166.959 140.316 167.417 140.213 167.706 140.008C167.995 139.793 168.14 139.462 168.14 139.014C168.14 138.566 167.995 138.239 167.706 138.034C167.417 137.819 166.959 137.712 166.334 137.712H164.346V140.316H166.334ZM172.27 136.032H179.144V137.726H174.398V140.078H178.85V141.786H174.398V144.306H179.144V146H172.27V136.032Z" fill="white"/>
<path d="M117.169 74.4244H81.4326C79.6197 74.4244 78.0664 75.9783 78.0664 77.7906C78.0664 79.6035 79.6203 81.1568 81.4326 81.1568H96.4522V106.145H90.8846C90.1076 106.145 89.5896 106.793 89.5896 107.44C89.5896 108.088 90.2371 108.735 90.8846 108.735H108.752C109.529 108.735 110.047 108.088 110.047 107.44C110.047 106.793 109.399 106.145 108.752 106.145H102.149L102.148 81.1568H117.168C118.981 81.1568 120.534 79.6029 120.534 77.7906C120.534 75.9777 118.981 74.4238 117.168 74.4238L117.169 74.4244Z" fill="white"/>
<path d="M96.4551 56.1699H102.152V71.7074H96.4551V56.1699Z" fill="white"/>
<path d="M87.2623 53.4496H111.345C111.474 53.1906 111.474 52.8021 111.474 52.4136C110.956 37.9121 105.518 26.1301 99.3034 26C93.0883 26 87.6507 37.7823 87.1328 52.4136C87.1328 52.8021 87.1328 53.1906 87.2623 53.4496H87.2623Z" fill="white"/>
<path d="M71.5949 53.4495H84.5426C84.5426 53.061 84.4131 52.6725 84.4131 52.284C84.8016 41.1493 87.9088 31.8267 92.311 26.9067C80.6582 29.8846 71.5949 39.9839 70.5586 52.4142C70.5586 52.8026 70.6881 53.0616 70.8176 53.1911C70.9471 53.3206 71.2061 53.4501 71.5946 53.4501L71.5949 53.4495Z" fill="white"/>
<path d="M114.062 53.4496H127.009C127.268 53.4496 127.527 53.3201 127.786 53.1906C127.916 53.0611 128.045 52.8022 128.045 52.4137C127.009 39.984 117.946 29.8852 106.293 26.9062C110.695 31.697 113.803 41.0193 114.191 52.2836C114.191 52.672 114.191 53.0605 114.061 53.449L114.062 53.4496Z" fill="white"/>
<path d="M138.923 81.1582H125.457C123.903 81.1582 122.738 82.3236 122.738 83.877V107.442H127.4V102.392H137.11V107.442H141.772V83.877C141.642 82.4532 140.477 81.1582 138.923 81.1582ZM137.11 99.8031H127.399V88.5389H137.11V99.8031Z" fill="white"/>
<path d="M74.1845 81.1582H60.7188C59.1649 81.1582 58 82.3236 58 83.877V107.442H62.6612V102.392H72.3722V107.442H77.0334V83.877C76.9033 82.4532 75.609 81.1582 74.1845 81.1582ZM72.2421 99.8031H62.5311V88.5389H72.2421V99.8031Z" fill="white"/>
</svg>
