<svg width="200" height="200" viewBox="0 0 200 200" fill="none" xmlns="http://www.w3.org/2000/svg">
<rect width="200" height="200" rx="6" fill="#6D87CB"/>
<path d="M76.518 156L72.178 151.394V156H69.994V146.032H72.178V150.414L76.364 146.032H78.968L74.334 150.792L79.15 156H76.518ZM79.718 146.032H81.902V156H79.718V146.032ZM86.3376 147.81H83.2156V146.032H91.6716V147.81H88.5496V156H86.3376V147.81ZM97.0744 156.126C96.0664 156.126 95.1844 155.916 94.4284 155.496C93.6817 155.067 93.1077 154.469 92.7064 153.704C92.305 152.929 92.1044 152.029 92.1044 151.002C92.1044 149.985 92.305 149.093 92.7064 148.328C93.1077 147.553 93.6817 146.956 94.4284 146.536C95.1844 146.116 96.0664 145.906 97.0744 145.906C97.737 145.906 98.367 146.009 98.9644 146.214C99.571 146.41 100.066 146.69 100.448 147.054L99.7624 148.622C99.3144 148.286 98.8757 148.043 98.4464 147.894C98.0264 147.735 97.583 147.656 97.1164 147.656C96.2204 147.656 95.5344 147.941 95.0584 148.51C94.5824 149.079 94.3444 149.91 94.3444 151.002C94.3444 152.103 94.5824 152.943 95.0584 153.522C95.5344 154.091 96.2204 154.376 97.1164 154.376C97.583 154.376 98.0264 154.301 98.4464 154.152C98.8757 153.993 99.3144 153.746 99.7624 153.41L100.448 154.978C100.066 155.342 99.571 155.627 98.9644 155.832C98.367 156.028 97.737 156.126 97.0744 156.126ZM111.026 146.032V156H108.884V151.814H104.264V156H102.122V146.032H104.264V150.064H108.884V146.032H111.026ZM113.173 146.032H120.047V147.726H115.301V150.078H119.753V151.786H115.301V154.306H120.047V156H113.173V146.032ZM130.331 146.032V156H128.707L123.737 149.644V156H121.693V146.032H123.303L128.273 152.374V146.032H130.331Z" fill="white"/>
<path d="M73.6236 40C73.1413 40 72.6783 40.1934 72.3375 40.538C71.9962 40.8819 71.8047 41.3494 71.8047 41.8362V55.94C71.8047 56.4274 71.9962 56.8943 72.3375 57.2388C72.6783 57.5828 73.1413 57.7762 73.6236 57.7762H126.812H126.811C127.294 57.7762 127.757 57.5827 128.097 57.2388C128.439 56.8943 128.63 56.4274 128.63 55.94V41.8362C128.63 41.3494 128.439 40.8819 128.097 40.538C127.757 40.1934 127.294 40 126.811 40H73.6229H73.6236Z" fill="white"/>
<path d="M73.6237 58.5298C73.1414 58.5298 72.6784 58.7232 72.3377 59.0678C71.9963 59.4123 71.8048 59.8792 71.8048 60.3666V60.0758L69.0912 68.4882C68.9112 69.0466 69.0067 69.6589 69.3486 70.1347C69.69 70.6106 70.2363 70.8924 70.8185 70.893L129.611 70.9827C130.192 70.9827 130.739 70.7028 131.081 70.2282C131.424 69.7537 131.521 69.142 131.343 68.583L128.542 59.8031C128.3 59.0448 127.6 58.5298 126.811 58.5298H73.6223L73.6237 58.5298Z" fill="white"/>
<path d="M77.1542 75.4497C76.6719 75.4497 76.2095 75.6431 75.8681 75.9877C75.5274 76.3322 75.3359 76.7991 75.3359 77.2859V82.5849C75.3359 83.0723 75.5274 83.5391 75.8681 83.8837C76.2095 84.2283 76.6719 84.4217 77.1542 84.4217H86.6757C87.1579 84.4217 87.6203 84.2282 87.9617 83.8837C88.3024 83.5391 88.4945 83.0723 88.4945 82.5849V77.2859C88.4939 76.7991 88.3024 76.3322 87.9617 75.9877C87.6203 75.6431 87.1579 75.4497 86.6757 75.4497H77.1542Z" fill="white"/>
<path d="M123.271 80.7258L115.578 80.7508H115.579C115.087 80.7354 114.609 80.9224 114.256 81.2695C113.902 81.616 113.704 82.0931 113.705 82.5908C113.706 83.0884 113.907 83.5643 114.262 83.9088C114.617 84.254 115.095 84.4391 115.588 84.4212L123.282 84.3981C123.768 84.4026 124.235 84.2105 124.581 83.8646C124.925 83.5188 125.118 83.0474 125.117 82.5568C125.115 82.0656 124.919 81.5955 124.573 81.2516C124.226 80.9077 123.757 80.7181 123.271 80.7258L123.271 80.7258Z" fill="white"/>
<path d="M70.8407 84.8083C70.3546 84.8019 69.8864 84.9927 69.5405 85.3379C69.1947 85.6825 69 86.1532 69 86.6444C69 87.1357 69.1947 87.6058 69.5405 87.951C69.8864 88.2962 70.3545 88.487 70.8407 88.4806H129.592C130.078 88.487 130.546 88.2962 130.892 87.951C131.238 87.6058 131.433 87.1357 131.433 86.6444C131.433 86.1532 131.238 85.6825 130.892 85.3379C130.546 84.9927 130.078 84.8019 129.592 84.8083H70.8407Z" fill="white"/>
<path d="M70.8651 89.4072C69.8609 89.4072 69.0469 90.2289 69.0469 91.2433V118.96C69.0469 119.974 69.8609 120.796 70.8651 120.796H129.567C130.572 120.796 131.386 119.974 131.386 118.96V91.2433C131.386 90.2289 130.572 89.4072 129.567 89.4072H70.8651ZM104.707 95.3825H123.386V95.3819C123.868 95.3813 124.332 95.5747 124.673 95.9192C125.014 96.2638 125.206 96.7313 125.206 97.2181V110.783C125.206 111.27 125.014 111.737 124.673 112.081C124.332 112.426 123.869 112.619 123.386 112.619H104.707C103.703 112.619 102.889 111.796 102.889 110.783V97.2181C102.889 96.2043 103.703 95.382 104.707 95.382V95.3825ZM77.0462 97.5831H95.7255V97.5825C96.7297 97.5825 97.5438 98.4048 97.5438 99.4186V112.985C97.5438 113.999 96.7298 114.821 95.7255 114.821H77.0462C76.5633 114.821 76.1003 114.628 75.7589 114.283C75.4175 113.939 75.226 113.472 75.226 112.984V99.4186C75.226 98.9312 75.4175 98.4637 75.7589 98.1198C76.1003 97.7752 76.5633 97.5818 77.0462 97.5824V97.5831Z" fill="white"/>
<path d="M106.527 99.0562H121.569V108.948H106.527V99.0562Z" fill="white"/>
<path d="M78.8652 101.255H93.9067V111.149H78.8652V101.255Z" fill="white"/>
</svg>
