<svg width="75" height="59" viewBox="0 0 75 59" fill="none" xmlns="http://www.w3.org/2000/svg">
<path d="M32.0258 46.2526C31.0063 47.2767 30.3127 48.5799 30.0329 49.998C29.7532 51.4161 29.8995 52.8855 30.454 54.2203C31.0074 55.5551 31.9448 56.6957 33.1462 57.4984C34.3476 58.3007 35.7595 58.7291 37.2035 58.7291C38.648 58.7291 40.0605 58.3007 41.2613 57.4984C42.4627 56.6956 43.3995 55.5551 43.954 54.2203C44.508 52.8855 44.6544 51.4162 44.3746 49.998C44.0948 48.5799 43.4012 47.2766 42.3817 46.2526C41.705 45.5664 40.8988 45.022 40.0099 44.6504C39.121 44.2783 38.1673 44.0869 37.2035 44.0869C36.2402 44.0869 35.2865 44.2783 34.3976 44.6504C33.5087 45.022 32.7025 45.5664 32.0258 46.2526H32.0258Z" fill="white"/>
<path d="M37.2028 28.8903C34.236 28.8801 31.2968 29.4578 28.5545 30.5899C25.8117 31.722 23.3206 33.3867 21.2241 35.4871C20.4236 36.2916 19.9749 37.381 19.9766 38.5165C19.9788 39.652 20.4314 40.7402 21.2354 41.5413C22.0387 42.3429 23.1275 42.7916 24.2625 42.7899C25.3968 42.7877 26.4839 42.3345 27.2851 41.53C29.9182 38.9083 33.4811 37.4361 37.1956 37.4361C40.91 37.4361 44.4737 38.9083 47.1062 41.53C47.5031 41.9291 47.9743 42.2467 48.4933 42.4634C49.0118 42.6807 49.5686 42.7933 50.1309 42.795C50.6933 42.7961 51.2507 42.6875 51.7709 42.4735C52.2911 42.2596 52.764 41.9455 53.1631 41.5486C53.5623 41.1517 53.8792 40.6799 54.096 40.1609C54.3127 39.6412 54.4253 39.0845 54.427 38.5215C54.4281 37.9585 54.3195 37.4012 54.1055 36.8804C53.8922 36.3597 53.578 35.8862 53.1817 35.4871C51.0852 33.3867 48.5935 31.7219 45.8513 30.5899C43.1086 29.4577 40.1693 28.8802 37.203 28.8903L37.2028 28.8903Z" fill="white"/>
<path d="M37.2029 14.8216C32.3856 14.8087 27.6133 15.7494 23.1607 17.5886C18.7082 19.4278 14.6627 22.1301 11.2573 25.54C10.861 25.938 10.5463 26.4109 10.3324 26.9305C10.1184 27.4501 10.0087 28.0069 10.0098 28.5693C10.0109 29.1317 10.1224 29.6879 10.3385 30.2069C10.5542 30.726 10.8705 31.1972 11.2686 31.5941C11.666 31.9909 12.1384 32.3051 12.658 32.5196C13.177 32.7335 13.7338 32.8433 14.2956 32.8422C14.8574 32.841 15.4131 32.7296 15.9316 32.5134C16.4507 32.2972 16.9219 31.9814 17.3182 31.5828C22.6028 26.3213 29.7542 23.368 37.2096 23.368C44.6645 23.368 51.8162 26.3213 57.1011 31.5828C57.9022 32.3856 58.9887 32.8371 60.1219 32.8377C60.6832 32.8382 61.2389 32.7279 61.7574 32.5134C62.2765 32.2989 62.7477 31.9842 63.1446 31.5879C63.542 31.191 63.8567 30.7198 64.0723 30.2007C64.2874 29.6822 64.3983 29.1266 64.3989 28.5647C64.3989 28.0028 64.2891 27.4472 64.0746 26.9282C63.8607 26.4091 63.546 25.9374 63.1491 25.5399C59.7448 22.1295 55.6994 19.4266 51.2468 17.5868C46.7938 15.747 42.0214 14.8075 37.2041 14.8214L37.2029 14.8216Z" fill="white"/>
<path d="M73.1555 15.5694C63.5547 5.99102 50.7867 0.720703 37.2005 0.720703C23.6155 0.720703 10.8497 5.99116 1.24698 15.5694C0.446434 16.3738 -0.00225416 17.4632 8.51645e-06 18.5988C0.00226039 19.7337 0.454879 20.822 1.25881 21.623C2.06216 22.4241 3.15153 22.8728 4.2859 22.8705C5.42028 22.8682 6.50679 22.4151 7.30737 21.6111C15.2497 13.7037 25.9968 9.26526 37.2007 9.26526C48.4046 9.26526 59.1501 13.7037 67.0926 21.6111C67.8931 22.4156 68.9802 22.8688 70.1146 22.8711C71.2496 22.8733 72.3384 22.4246 73.1423 21.6235C73.9462 20.8224 74.3994 19.7348 74.4016 18.5993C74.4039 17.4638 73.9558 16.374 73.1547 15.5695L73.1555 15.5694Z" fill="white"/>
</svg>
