<svg width="25" height="38" viewBox="0 0 25 38" fill="none" xmlns="http://www.w3.org/2000/svg">
<path d="M22.2019 0H2.7123C1.39759 0 0.328125 1.06955 0.328125 2.38426V35.2755C0.328125 36.5901 1.39767 37.6597 2.71238 37.6597H22.2019C23.5166 37.6597 24.5862 36.5902 24.5862 35.2755V2.38426C24.5861 1.06955 23.5166 0 22.2019 0ZM1.52288 5.99258H23.3914V30.8983H1.52288V5.99258ZM2.7123 1.19476H22.2019C22.8577 1.19476 23.3914 1.72834 23.3914 2.38426V5.19608H1.52288V2.38426C1.52288 1.72834 2.05646 1.19476 2.7123 1.19476ZM22.2019 36.4649H2.7123C2.05646 36.4649 1.5228 35.9313 1.5228 35.2754V31.6947H23.3913V35.2754C23.3913 35.9313 22.8577 36.4649 22.2019 36.4649Z" fill="#002856"/>
<path d="M12.4565 32.2227C11.3777 32.2227 10.5 33.1004 10.5 34.1793C10.5 35.2581 11.3777 36.1358 12.4565 36.1358C13.5353 36.1358 14.4131 35.2581 14.4131 34.1793C14.4131 33.1005 13.5354 32.2227 12.4565 32.2227ZM12.4565 35.3393C11.8169 35.3393 11.2965 34.8189 11.2965 34.1793C11.2965 33.5396 11.8169 33.0192 12.4565 33.0192C13.0962 33.0192 13.6166 33.5396 13.6166 34.1793C13.6166 34.8189 13.0962 35.3393 12.4565 35.3393Z" fill="#002856"/>
<path d="M9.74982 3.79455H15.166C15.386 3.79455 15.5643 3.61621 15.5643 3.3963C15.5643 3.17638 15.386 2.99805 15.166 2.99805H9.74982C9.52982 2.99805 9.35156 3.17638 9.35156 3.3963C9.35156 3.61621 9.52982 3.79455 9.74982 3.79455Z" fill="#002856"/>
<path d="M8.31622 3.79455C8.42056 3.79455 8.52331 3.75234 8.59739 3.67826C8.67146 3.60339 8.71447 3.50144 8.71447 3.3963C8.71447 3.29116 8.67146 3.18921 8.59739 3.11434C8.52323 3.04026 8.42048 2.99805 8.31622 2.99805C8.21108 2.99805 8.10905 3.04026 8.03426 3.11434C7.96018 3.18841 7.91797 3.29116 7.91797 3.3963C7.91797 3.50144 7.96018 3.60339 8.03426 3.67826C8.10833 3.75234 8.21108 3.79455 8.31622 3.79455Z" fill="#002856"/>
</svg>
