<svg width="38" height="38" viewBox="0 0 38 38" fill="none" xmlns="http://www.w3.org/2000/svg">
<circle cx="19" cy="19" r="19" fill="#B70D11"/>
<path d="M28.8781 14.2236C28.6441 13.3541 27.9586 12.6688 27.0893 12.4347C25.501 12 19.1479 12 19.1479 12C19.1479 12 12.795 12 11.2067 12.4181C10.3541 12.6521 9.65191 13.3543 9.41793 14.2236C9 15.8117 9 19.1053 9 19.1053C9 19.1053 9 22.4155 9.41793 23.9871C9.65206 24.8564 10.3374 25.5419 11.2069 25.776C12.8117 26.2107 19.1481 26.2107 19.1481 26.2107C19.1481 26.2107 25.501 26.2107 27.0893 25.7926C27.9588 25.5586 28.6441 24.8731 28.8783 24.0038C29.2962 22.4155 29.2962 19.1221 29.2962 19.1221C29.2962 19.1221 29.3129 15.8117 28.8781 14.2236Z" fill="white"/>
<path d="M17.125 22.148L22.408 19.1053L17.125 16.0625V22.148Z" fill="#B70D11"/>
</svg>
