<svg width="200" height="200" viewBox="0 0 200 200" fill="none" xmlns="http://www.w3.org/2000/svg">
<rect width="200" height="200" rx="6" fill="#6D87CB"/>
<path d="M48.48 156.126C47.724 156.126 46.996 156.028 46.296 155.832C45.6053 155.627 45.0313 155.342 44.574 154.978L45.274 153.41C46.2353 154.082 47.3087 154.418 48.494 154.418C49.1287 154.418 49.614 154.32 49.95 154.124C50.2953 153.919 50.468 153.634 50.468 153.27C50.468 152.953 50.3093 152.705 49.992 152.528C49.684 152.341 49.138 152.164 48.354 151.996C47.4767 151.819 46.7767 151.604 46.254 151.352C45.7407 151.091 45.3627 150.778 45.12 150.414C44.8867 150.041 44.77 149.579 44.77 149.028C44.77 148.431 44.9333 147.894 45.26 147.418C45.596 146.942 46.0627 146.573 46.66 146.312C47.2573 146.041 47.948 145.906 48.732 145.906C49.4413 145.906 50.1227 146.009 50.776 146.214C51.4293 146.419 51.952 146.699 52.344 147.054L51.644 148.622C50.7667 147.95 49.8007 147.614 48.746 147.614C48.186 147.614 47.738 147.726 47.402 147.95C47.066 148.174 46.898 148.477 46.898 148.86C46.898 149.084 46.9587 149.271 47.08 149.42C47.2107 149.569 47.4253 149.705 47.724 149.826C48.0227 149.938 48.4473 150.05 48.998 150.162C50.2767 150.442 51.196 150.806 51.756 151.254C52.3253 151.702 52.61 152.313 52.61 153.088C52.61 154.021 52.246 154.763 51.518 155.314C50.79 155.855 49.7773 156.126 48.48 156.126ZM64.2332 146.032V156H62.3012V150.554L60.0052 156H58.5912L56.2812 150.624V156H54.3632V146.032H56.0992L59.3192 153.382L62.5112 146.032H64.2332ZM70.9614 156.126C69.972 156.126 69.1087 155.921 68.3714 155.51C67.6434 155.09 67.0787 154.493 66.6774 153.718C66.2854 152.943 66.0894 152.038 66.0894 151.002C66.0894 149.966 66.2854 149.065 66.6774 148.3C67.0787 147.535 67.6434 146.947 68.3714 146.536C69.1087 146.116 69.972 145.906 70.9614 145.906C71.9507 145.906 72.8094 146.116 73.5374 146.536C74.2654 146.947 74.8254 147.535 75.2174 148.3C75.6094 149.065 75.8054 149.966 75.8054 151.002C75.8054 152.038 75.6094 152.943 75.2174 153.718C74.8254 154.493 74.2654 155.09 73.5374 155.51C72.8094 155.921 71.9507 156.126 70.9614 156.126ZM70.9614 154.418C71.8014 154.418 72.4547 154.124 72.9214 153.536C73.3974 152.948 73.6354 152.103 73.6354 151.002C73.6354 149.901 73.3974 149.061 72.9214 148.482C72.4547 147.903 71.8014 147.614 70.9614 147.614C70.1214 147.614 69.4634 147.903 68.9874 148.482C68.5207 149.061 68.2874 149.901 68.2874 151.002C68.2874 152.113 68.5207 152.962 68.9874 153.55C69.4634 154.129 70.1214 154.418 70.9614 154.418ZM84.1763 156L79.8363 151.394V156H77.6523V146.032H79.8363V150.414L84.0223 146.032H86.6263L81.9923 150.792L86.8083 156H84.1763ZM87.3763 146.032H89.5603V156H87.3763V146.032ZM100.338 146.032V156H98.7139L93.7439 149.644V156H91.6999V146.032H93.3099L98.2799 152.374V146.032H100.338ZM111.031 150.498V155.384C110.545 155.617 109.976 155.799 109.323 155.93C108.679 156.061 108.016 156.126 107.335 156.126C106.28 156.126 105.365 155.921 104.591 155.51C103.816 155.099 103.219 154.511 102.799 153.746C102.388 152.981 102.183 152.066 102.183 151.002C102.183 149.966 102.388 149.065 102.799 148.3C103.219 147.535 103.807 146.947 104.563 146.536C105.328 146.116 106.219 145.906 107.237 145.906C107.955 145.906 108.623 146.004 109.239 146.2C109.864 146.396 110.377 146.671 110.779 147.026L110.079 148.594C109.612 148.258 109.159 148.015 108.721 147.866C108.282 147.717 107.806 147.642 107.293 147.642C105.37 147.642 104.409 148.762 104.409 151.002C104.409 153.289 105.412 154.432 107.419 154.432C107.969 154.432 108.52 154.362 109.071 154.222V152.024H107.111V150.498H111.031ZM123.79 153.788H119.128L118.176 156H115.978L120.556 146.032H122.32L126.898 156H124.742L123.79 153.788ZM123.076 152.122L121.466 148.384L119.856 152.122H123.076ZM136.303 156H133.993L132.719 152.682C132.616 152.421 132.457 152.239 132.243 152.136C132.037 152.033 131.776 151.982 131.459 151.982H130.045V156H127.889V146.032H132.327C133.484 146.032 134.361 146.284 134.959 146.788C135.556 147.292 135.855 148.015 135.855 148.958C135.855 149.621 135.677 150.19 135.323 150.666C134.977 151.142 134.478 151.483 133.825 151.688C134.413 151.809 134.837 152.215 135.099 152.906L136.303 156ZM132.005 150.316C132.63 150.316 133.087 150.213 133.377 150.008C133.666 149.793 133.811 149.462 133.811 149.014C133.811 148.566 133.666 148.239 133.377 148.034C133.087 147.819 132.63 147.712 132.005 147.712H130.017V150.316H132.005ZM137.941 146.032H144.815V147.726H140.069V150.078H144.521V151.786H140.069V154.306H144.815V156H137.941V146.032ZM152.989 153.788H148.327L147.375 156H145.177L149.755 146.032H151.519L156.097 156H153.941L152.989 153.788ZM152.275 152.122L150.665 148.384L149.055 152.122H152.275Z" fill="white"/>
<path d="M86.0367 88.9971H75.1855V84.9516H86.0737C86.0563 85.0117 86.0436 85.0728 86.0369 85.1349L86.0367 88.9971ZM88.2442 88.9971H116.751V84.9516H88.207C88.2244 85.0117 88.237 85.0728 88.2438 85.1349L88.2442 88.9971ZM59 80.7209C59.0116 72.2875 61.6371 64.0657 66.5159 57.1872C71.3937 50.3087 78.2846 45.1119 86.239 42.3128C94.1941 39.5128 102.82 39.2489 110.932 41.5553C119.043 43.8627 126.239 48.6278 131.53 55.1942C136.82 61.7614 139.945 69.8069 140.472 78.2236C141 86.6395 138.906 95.0126 134.477 102.189C130.048 109.365 123.505 114.992 115.745 118.294C107.986 121.597 99.3939 122.412 91.1515 120.629L87.7094 119.689C87.3515 119.564 86.6192 119.31 85.2749 118.952L82.534 117.719H82.535C75.5139 114.411 69.5752 109.178 65.4093 102.628C61.2436 96.0796 59.0214 88.4823 59.0003 80.7213L59 80.7209ZM119.043 110.839C118.714 110.328 118.036 110.175 117.52 110.497L117.258 110.661C117.071 110.735 116.89 110.823 116.714 110.922C116.454 111.056 116.258 111.29 116.171 111.569C116.083 111.85 116.11 112.153 116.247 112.412C116.383 112.672 116.617 112.867 116.897 112.953C117.178 113.04 117.481 113.012 117.74 112.874C117.843 112.82 117.914 112.784 117.964 112.76C118.227 112.663 118.474 112.53 118.699 112.363C119.214 112.037 119.369 111.355 119.043 110.839L119.043 110.839ZM103.692 72.1671C103.694 70.9489 104.681 69.9616 105.9 69.9596H109.176C109.785 69.9596 110.28 69.4659 110.28 68.8568C110.28 68.2468 109.785 67.7531 109.176 67.7531H105.9C104.323 67.7531 102.866 68.594 102.077 69.9596C101.289 71.3262 101.289 73.0079 102.077 74.3746C102.866 75.7402 104.322 76.5811 105.9 76.5811H121.349C122.568 76.582 123.555 77.5694 123.556 78.7886V79.8923V79.8913C123.556 80.5014 124.05 80.9951 124.66 80.9951C125.27 80.9951 125.763 80.5014 125.763 79.8913V78.7876V78.7886C125.762 77.6179 125.297 76.4957 124.469 75.6685C123.641 74.8412 122.519 74.3756 121.349 74.3747H105.9C104.682 74.3727 103.694 73.3853 103.692 72.1672L103.692 72.1671ZM113.065 69.9984H113.07L114.286 69.9945H114.287C114.896 69.9936 115.39 69.4979 115.388 68.8888C115.387 68.2797 114.893 67.7861 114.283 67.787H114.278L113.061 67.7909V67.7919C112.452 67.7928 111.96 68.2885 111.961 68.8976C111.962 69.5067 112.457 70.0003 113.066 69.9984L113.065 69.9984ZM124.696 82.6848H124.694H124.695C124.086 82.6858 123.593 83.1785 123.592 83.7866L123.58 89.994C123.579 90.2869 123.695 90.5672 123.901 90.7748C124.108 90.9823 124.389 91.0987 124.681 91.0997H124.684C125.292 91.0997 125.786 90.607 125.787 89.9988L125.798 83.7915H125.799C125.799 83.1814 125.307 82.6867 124.697 82.6848H124.696ZM74.0815 82.743C73.7895 82.743 73.5082 82.8594 73.3017 83.0669C73.0941 83.2735 72.9787 83.5538 72.9787 83.8467V90.0998C72.9787 90.3927 73.0941 90.673 73.3017 90.8806C73.5082 91.0872 73.7895 91.2036 74.0815 91.2036H117.856C118.148 91.2036 118.429 91.0872 118.636 90.8806C118.843 90.673 118.959 90.3927 118.959 90.0998V83.8467C118.959 83.5538 118.843 83.2735 118.636 83.0669C118.429 82.8594 118.148 82.743 117.856 82.743H74.0815ZM120.269 89.994H120.27C120.269 90.2869 120.385 90.5672 120.591 90.7747C120.798 90.9823 121.078 91.0987 121.371 91.0996H121.373C121.982 91.0996 122.476 90.6069 122.477 89.9988L122.488 83.7914C122.489 83.1814 121.997 82.6867 121.388 82.6857H121.386C120.777 82.6857 120.283 83.1785 120.282 83.7866L120.269 89.994ZM84.8426 49.9067C84.9619 50.1734 85.183 50.3829 85.4575 50.4867C85.731 50.5905 86.0346 50.5808 86.3013 50.4605C96.4864 45.8904 108.269 46.6313 117.8 52.442C127.332 58.2526 133.388 68.3873 133.991 79.5335C134.593 90.6807 129.665 101.409 120.816 108.212C120.332 108.584 120.241 109.278 120.614 109.761C120.985 110.244 121.679 110.334 122.163 109.962C131.582 102.711 136.825 91.2858 136.181 79.417C135.536 67.5483 129.087 56.7571 118.939 50.5676C108.79 44.3786 96.2442 43.5853 85.3967 48.4464C85.13 48.5667 84.9215 48.7878 84.8177 49.0613C84.7139 49.3348 84.7226 49.6394 84.8429 49.9061L84.8426 49.9067ZM80.6856 52.3547C81.0251 52.861 81.7098 52.9968 82.2161 52.6593C82.5546 52.4333 82.6342 52.3683 82.6448 52.3644L82.9959 52.1666L82.9969 52.1656C83.5265 51.864 83.7117 51.1909 83.4101 50.6613C83.1094 50.1317 82.4353 49.9455 81.9058 50.2471L81.5721 50.4343C81.5236 50.4625 81.3655 50.5594 81.3219 50.5934C81.2947 50.6147 81.2356 50.6584 80.9902 50.8223C80.4829 51.1618 80.3472 51.8475 80.6856 52.3547L80.6856 52.3547ZM64.1042 81.3631C64.11 93.2629 69.9819 104.395 79.8002 111.119C89.6175 117.844 102.12 119.297 113.218 115.003C113.787 114.782 114.068 114.143 113.847 113.575C113.627 113.007 112.986 112.726 112.419 112.947C102.293 116.869 90.9008 115.7 81.7844 109.801C72.6662 103.902 66.9313 93.9883 66.36 83.1438C65.7887 72.3002 70.4519 61.8398 78.8989 55.0144C79.1278 54.8311 79.2743 54.5634 79.3053 54.2715C79.3363 53.9805 79.25 53.6876 79.0657 53.4597C78.8815 53.2317 78.6138 53.0863 78.3218 53.0562C78.0299 53.0261 77.7379 53.1134 77.511 53.2987C69.0166 60.1345 64.0857 70.4581 64.106 81.361L64.1042 81.3631Z" fill="white"/>
</svg>
