<svg width="82" height="77" viewBox="0 0 82 77" fill="none" xmlns="http://www.w3.org/2000/svg">
<path d="M63.4435 0C62.0415 0 60.9303 1.09045 60.8359 2.46827L62.5761 2.97396H80.1712L81.9114 2.46827C81.8164 1.09105 80.7064 0 79.3038 0H63.4435Z" fill="white"/>
<path d="M60.8008 5.20898V52.8689H71.3748V71.3733H79.3052C80.7698 71.3733 81.9487 70.1944 81.9487 68.7298V5.20898L80.7302 5.56007C80.6116 5.59665 80.4883 5.61613 80.3638 5.61849H62.385C62.2605 5.61613 62.1372 5.59665 62.0186 5.56007L60.8008 5.20898ZM71.3748 19.8255V19.8261C72.4262 19.8261 73.4353 20.2439 74.1787 20.9874C74.922 21.7309 75.3399 22.7393 75.3399 23.7913C75.3399 24.8428 74.9222 25.8512 74.1787 26.5947C73.4352 27.3388 72.4261 27.7566 71.3748 27.7566C70.3234 27.7566 69.3142 27.3388 68.5708 26.5947C67.8273 25.8513 67.4096 24.8428 67.4096 23.7913C67.4096 22.7392 67.8273 21.7307 68.5708 20.9874C69.3143 20.244 70.3234 19.8261 71.3748 19.8261V19.8255ZM71.3748 35.6865V35.6871C72.9519 35.6871 74.4649 36.3137 75.5808 37.4289C76.696 38.5441 77.3226 40.057 77.3226 41.6349C77.3226 43.2121 76.696 44.7251 75.5808 45.8404C74.465 46.9562 72.9521 47.5828 71.3748 47.5828C69.7974 47.5828 68.2846 46.9562 67.1687 45.8404C66.0535 44.7251 65.4269 43.2123 65.4269 41.6349C65.4269 40.0571 66.0535 38.5442 67.1687 37.4289C68.2845 36.3137 69.7974 35.6871 71.3748 35.6871V35.6865Z" fill="white"/>
<path d="M70.0527 41.6357C70.0527 41.9862 70.192 42.322 70.4398 42.5698C70.6876 42.8182 71.024 42.9575 71.3745 42.9575C71.725 42.9575 72.0613 42.8182 72.3091 42.5698C72.557 42.322 72.6962 41.9862 72.6962 41.6357C72.6962 41.2846 72.557 40.9489 72.3091 40.701C72.0613 40.4532 71.725 40.314 71.3745 40.314C70.6446 40.314 70.0527 40.9052 70.0527 41.6357Z" fill="white"/>
<path d="M2.6427 0C1.24071 0 0.129567 1.09045 0.0351562 2.46827L1.77533 2.97396H19.3704L21.1106 2.46827C21.0156 1.09105 19.9057 0 18.503 0H2.6427Z" fill="white"/>
<path d="M0 5.20898V68.7298C0 70.1944 1.17895 71.3733 2.64349 71.3733H10.574V52.8689H21.1479V5.20898L19.9295 5.56007C19.8109 5.59665 19.6875 5.61613 19.563 5.61849H1.58425C1.45975 5.61613 1.33643 5.59665 1.21782 5.56007L0 5.20898ZM10.574 19.8255V19.8261C11.6255 19.8261 12.6345 20.2439 13.3779 20.9874C14.1212 21.7309 14.5391 22.7393 14.5391 23.7913C14.5391 24.8428 14.1214 25.8512 13.3779 26.5947C12.6344 27.3388 11.6253 27.7566 10.574 27.7566C9.52261 27.7566 8.51341 27.3388 7.77006 26.5947C7.02657 25.8513 6.60881 24.8428 6.60881 23.7913C6.60881 22.7392 7.02657 21.7307 7.77006 20.9874C8.51354 20.244 9.52261 19.8261 10.574 19.8261V19.8255ZM10.574 35.6865V35.6871C12.1512 35.6871 13.6641 36.3137 14.78 37.4289C15.8952 38.5441 16.5218 40.057 16.5218 41.6349C16.5218 43.2121 15.8952 44.7251 14.78 45.8404C13.6642 46.9562 12.1513 47.5828 10.574 47.5828C8.99664 47.5828 7.4838 46.9562 6.36795 45.8404C5.25272 44.7251 4.62611 43.2123 4.62611 41.6349C4.62611 40.0571 5.25276 38.5442 6.36795 37.4289C7.48376 36.3137 8.99664 35.6871 10.574 35.6871V35.6865Z" fill="white"/>
<path d="M11.8954 41.6357C11.8954 41.9862 11.7562 42.322 11.5084 42.5698C11.2605 42.8182 10.9242 42.9575 10.5737 42.9575C9.84379 42.9575 9.25195 42.3656 9.25195 41.6357C9.25195 40.9052 9.84379 40.314 10.5737 40.314C10.9242 40.314 11.2605 40.4532 11.5084 40.701C11.7562 40.9489 11.8954 41.2846 11.8954 41.6357Z" fill="white"/>
<path d="M13.2168 55.5132V71.3741H68.7301V55.5132H13.2168ZM21.1473 60.8002H39.6517C41.1163 60.8002 42.2952 61.9791 42.2952 63.4437C42.2952 64.9082 41.1163 66.0872 39.6517 66.0872H21.1473C19.6827 66.0872 18.5038 64.9082 18.5038 63.4437C18.5038 61.9791 19.6827 60.8002 21.1473 60.8002ZM50.2257 60.8002C50.9267 60.8002 51.5994 61.0787 52.095 61.5743C52.5907 62.07 52.8692 62.7421 52.8692 63.4437C52.8692 64.1447 52.5907 64.8167 52.095 65.3124C51.5994 65.8086 50.9267 66.0871 50.2257 66.0871C49.5247 66.0871 48.852 65.8086 48.3564 65.3124C47.8607 64.8167 47.5822 64.1446 47.5822 63.4437C47.5822 62.7421 47.8607 62.07 48.3564 61.5743C48.852 61.0787 49.5247 60.8002 50.2257 60.8002ZM60.7997 60.8002C61.5007 60.8002 62.1733 61.0787 62.669 61.5743C63.1646 62.07 63.4432 62.7421 63.4432 63.4437C63.4432 64.1447 63.1646 64.8167 62.669 65.3124C62.1733 65.8086 61.5007 66.0871 60.7997 66.0871C60.0987 66.0871 59.426 65.8086 58.9303 65.3124C58.4347 64.8167 58.1562 64.1446 58.1562 63.4437C58.1562 62.7421 58.4347 62.07 58.9303 61.5743C59.426 61.0787 60.0987 60.8002 60.7997 60.8002Z" fill="white"/>
<path d="M3.96484 74.0176V76.6611H72.6956V74.0176H3.96484Z" fill="white"/>
<path d="M75.3398 74.0176V76.6611H77.9833V74.0176H75.3398Z" fill="white"/>
<path d="M70.0527 23.7915C70.0527 24.142 70.192 24.4777 70.4398 24.7255C70.6876 24.974 71.024 25.1132 71.3745 25.1132C71.725 25.1132 72.0613 24.974 72.3091 24.7255C72.557 24.4777 72.6962 24.142 72.6962 23.7915C72.6962 23.4404 72.557 23.1046 72.3091 22.8568C72.0613 22.609 71.725 22.4697 71.3745 22.4697C70.6446 22.4697 70.0527 23.061 70.0527 23.7915Z" fill="white"/>
<path d="M9.25195 23.7915C9.25195 24.142 9.39121 24.4777 9.63904 24.7255C9.88686 24.974 10.2232 25.1132 10.5737 25.1132C10.9242 25.1132 11.2605 24.974 11.5084 24.7255C11.7562 24.4777 11.8954 24.142 11.8954 23.7915C11.8954 23.4404 11.7562 23.1046 11.5084 22.8568C11.2605 22.609 10.9242 22.4697 10.5737 22.4697C9.84379 22.4697 9.25195 23.061 9.25195 23.7915Z" fill="white"/>
</svg>
