<svg width="200" height="200" viewBox="0 0 200 200" fill="none" xmlns="http://www.w3.org/2000/svg">
<rect width="200" height="200" rx="6" fill="#6D87CB"/>
<path d="M95.0258 96.2526C94.0063 97.2767 93.3127 98.5799 93.0329 99.998C92.7532 101.416 92.8995 102.885 93.454 104.22C94.0074 105.555 94.9448 106.696 96.1462 107.498C97.3476 108.301 98.7595 108.729 100.203 108.729C101.648 108.729 103.06 108.301 104.261 107.498C105.463 106.696 106.399 105.555 106.954 104.22C107.508 102.885 107.654 101.416 107.375 99.998C107.095 98.5799 106.401 97.2766 105.382 96.2526C104.705 95.5664 103.899 95.022 103.01 94.6504C102.121 94.2783 101.167 94.0869 100.203 94.0869C99.2402 94.0869 98.2865 94.2783 97.3976 94.6504C96.5087 95.022 95.7025 95.5664 95.0258 96.2526H95.0258Z" fill="white"/>
<path d="M100.203 78.8903C97.236 78.8801 94.2968 79.4578 91.5545 80.5899C88.8117 81.722 86.3206 83.3867 84.2241 85.4871C83.4236 86.2916 82.9749 87.381 82.9766 88.5165C82.9788 89.652 83.4314 90.7402 84.2354 91.5413C85.0387 92.3429 86.1275 92.7916 87.2625 92.7899C88.3968 92.7877 89.4839 92.3345 90.2851 91.53C92.9182 88.9083 96.4811 87.4361 100.196 87.4361C103.91 87.4361 107.474 88.9083 110.106 91.53C110.503 91.9291 110.974 92.2467 111.493 92.4634C112.012 92.6807 112.569 92.7933 113.131 92.795C113.693 92.7961 114.251 92.6875 114.771 92.4735C115.291 92.2596 115.764 91.9455 116.163 91.5486C116.562 91.1517 116.879 90.6799 117.096 90.1609C117.313 89.6412 117.425 89.0845 117.427 88.5215C117.428 87.9585 117.319 87.4012 117.106 86.8804C116.892 86.3597 116.578 85.8862 116.182 85.4871C114.085 83.3867 111.593 81.7219 108.851 80.5899C106.109 79.4577 103.169 78.8802 100.203 78.8903L100.203 78.8903Z" fill="white"/>
<path d="M100.203 64.8216C95.3856 64.8087 90.6133 65.7494 86.1607 67.5886C81.7082 69.4278 77.6627 72.1301 74.2573 75.54C73.861 75.938 73.5463 76.4109 73.3324 76.9305C73.1184 77.4501 73.0087 78.0069 73.0098 78.5693C73.0109 79.1317 73.1224 79.6879 73.3385 80.2069C73.5542 80.726 73.8705 81.1972 74.2686 81.5941C74.666 81.9909 75.1384 82.3051 75.658 82.5196C76.177 82.7335 76.7338 82.8433 77.2956 82.8422C77.8574 82.841 78.4131 82.7296 78.9316 82.5134C79.4507 82.2972 79.9219 81.9814 80.3182 81.5828C85.6028 76.3213 92.7542 73.368 100.21 73.368C107.665 73.368 114.816 76.3213 120.101 81.5828C120.902 82.3856 121.989 82.8371 123.122 82.8377C123.683 82.8382 124.239 82.7279 124.757 82.5134C125.276 82.2989 125.748 81.9842 126.145 81.5879C126.542 81.191 126.857 80.7198 127.072 80.2007C127.287 79.6822 127.398 79.1266 127.399 78.5647C127.399 78.0028 127.289 77.4472 127.075 76.9282C126.861 76.4091 126.546 75.9374 126.149 75.5399C122.745 72.1295 118.699 69.4266 114.247 67.5868C109.794 65.747 105.021 64.8075 100.204 64.8214L100.203 64.8216Z" fill="white"/>
<path d="M136.156 65.5694C126.555 55.991 113.787 50.7207 100.201 50.7207C86.6155 50.7207 73.8497 55.9912 64.247 65.5694C63.4464 66.3738 62.9977 67.4632 63 68.5988C63.0023 69.7337 63.4549 70.822 64.2588 71.623C65.0622 72.4241 66.1515 72.8728 67.2859 72.8705C68.4203 72.8682 69.5068 72.4151 70.3074 71.6111C78.2497 63.7037 88.9968 59.2653 100.201 59.2653C111.405 59.2653 122.15 63.7037 130.093 71.6111C130.893 72.4156 131.98 72.8688 133.115 72.8711C134.25 72.8733 135.338 72.4246 136.142 71.6235C136.946 70.8224 137.399 69.7348 137.402 68.5993C137.404 67.4638 136.956 66.374 136.155 65.5695L136.156 65.5694Z" fill="white"/>
<path d="M64.994 136.032H67.178V146H64.994V136.032ZM77.9556 136.032V146H76.3316L71.3616 139.644V146H69.3176V136.032H70.9276L75.8976 142.374V136.032H77.9556ZM82.3903 137.81H79.2683V136.032H87.7243V137.81H84.6023V146H82.3903V137.81ZM89.0253 136.032H95.8993V137.726H91.1533V140.078H95.6053V141.786H91.1533V144.306H95.8993V146H89.0253V136.032ZM105.96 146H103.65L102.376 142.682C102.274 142.421 102.115 142.239 101.9 142.136C101.695 142.033 101.434 141.982 101.116 141.982H99.7022V146H97.5462V136.032H101.984C103.142 136.032 104.019 136.284 104.616 136.788C105.214 137.292 105.512 138.015 105.512 138.958C105.512 139.621 105.335 140.19 104.98 140.666C104.635 141.142 104.136 141.483 103.482 141.688C104.07 141.809 104.495 142.215 104.756 142.906L105.96 146ZM101.662 140.316C102.288 140.316 102.745 140.213 103.034 140.008C103.324 139.793 103.468 139.462 103.468 139.014C103.468 138.566 103.324 138.239 103.034 138.034C102.745 137.819 102.288 137.712 101.662 137.712H99.6742V140.316H101.662ZM116.236 136.032V146H114.612L109.642 139.644V146H107.598V136.032H109.208L114.178 142.374V136.032H116.236ZM118.375 136.032H125.249V137.726H120.503V140.078H124.955V141.786H120.503V144.306H125.249V146H118.375V136.032ZM129.301 137.81H126.179V136.032H134.635V137.81H131.513V146H129.301V137.81Z" fill="white"/>
</svg>
