<svg width="82" height="82" viewBox="0 0 82 82" fill="none" xmlns="http://www.w3.org/2000/svg">
<path d="M27.0367 48.9971H16.1855V44.9516H27.0737C27.0563 45.0117 27.0436 45.0728 27.0369 45.1349L27.0367 48.9971ZM29.2442 48.9971H57.751V44.9516H29.207C29.2244 45.0117 29.237 45.0728 29.2438 45.1349L29.2442 48.9971ZM0 40.7209C0.0116388 32.2875 2.63714 24.0657 7.5159 17.1872C12.3937 10.3087 19.2846 5.11187 27.239 2.31283C35.1941 -0.487191 43.8204 -0.75113 51.9317 1.55533C60.043 3.86274 67.2386 8.62778 72.5295 15.1942C77.8204 21.7614 80.9445 29.8069 81.4721 38.2236C81.9998 46.6395 79.9057 55.0126 75.477 62.189C71.0484 69.3653 64.5046 74.9916 56.7454 78.2942C48.9862 81.5968 40.3939 82.4124 32.1515 80.6288L28.7094 79.6889C28.3515 79.5638 27.6192 79.3097 26.2749 78.9518L23.534 77.719H23.535C16.5139 74.4108 10.5752 69.1782 6.4093 62.6284C2.24365 56.0796 0.0214044 48.4823 0.000299306 40.7213L0 40.7209ZM60.0428 70.8391C59.714 70.328 59.036 70.1747 58.52 70.4967L58.2581 70.6606C58.0709 70.7353 57.8896 70.8226 57.714 70.9215C57.4541 71.0564 57.2582 71.2901 57.1709 71.5695C57.0826 71.8497 57.1098 72.1533 57.2465 72.4123C57.3833 72.6722 57.617 72.8672 57.8973 72.9535C58.1776 73.0398 58.4812 73.0117 58.7402 72.874C58.843 72.8197 58.9138 72.7838 58.9642 72.7595C59.2271 72.6635 59.4744 72.5296 59.6994 72.3628C60.2144 72.0369 60.3686 71.3551 60.0427 70.8391L60.0428 70.8391ZM44.6922 32.1671C44.6941 30.9489 45.6815 29.9616 46.8996 29.9596H50.1759C50.785 29.9596 51.2797 29.4659 51.2797 28.8568C51.2797 28.2468 50.785 27.7531 50.1759 27.7531H46.8996C45.3226 27.7531 43.8657 28.594 43.0771 29.9596C42.2886 31.3262 42.2886 33.0079 43.0771 34.3746C43.8657 35.7402 45.3225 36.5811 46.8996 36.5811H62.3493C63.5675 36.582 64.5549 37.5694 64.5558 38.7886V39.8923V39.8913C64.5558 40.5014 65.0505 40.9951 65.6596 40.9951C66.2697 40.9951 66.7633 40.5014 66.7633 39.8913V38.7876V38.7886C66.7624 37.6179 66.2968 36.4957 65.4685 35.6685C64.6412 34.8412 63.519 34.3756 62.3494 34.3747H46.8998C45.6816 34.3727 44.6942 33.3853 44.6923 32.1672L44.6922 32.1671ZM54.0653 29.9984H54.0701L55.2864 29.9945H55.2874C55.8965 29.9936 56.3901 29.4979 56.3882 28.8888C56.3872 28.2797 55.8926 27.7861 55.2825 27.787H55.2777L54.0614 27.7909V27.7919C53.4523 27.7928 52.9596 28.2885 52.9606 28.8976C52.9616 29.5067 53.4572 30.0003 54.0663 29.9984L54.0653 29.9984ZM65.6964 42.6848H65.6945H65.6955C65.0864 42.6858 64.5927 43.1785 64.5917 43.7866L64.5801 49.994C64.5791 50.2869 64.6945 50.5672 64.9011 50.7748C65.1077 50.9823 65.389 51.0987 65.6809 51.0997H65.6838C66.292 51.0997 66.7857 50.607 66.7866 49.9988L66.7983 43.7915H66.7992C66.7992 43.1814 66.3065 42.6867 65.6974 42.6848H65.6964ZM15.0815 42.743C14.7895 42.743 14.5082 42.8594 14.3017 43.0669C14.0941 43.2735 13.9787 43.5538 13.9787 43.8467V50.0998C13.9787 50.3927 14.0941 50.673 14.3017 50.8806C14.5082 51.0872 14.7895 51.2036 15.0815 51.2036H58.8559C59.1479 51.2036 59.4291 51.0872 59.6357 50.8806C59.8433 50.673 59.9587 50.3927 59.9587 50.0998V43.8467C59.9587 43.5538 59.8433 43.2735 59.6357 43.0669C59.4291 42.8594 59.1479 42.743 58.8559 42.743H15.0815ZM61.2693 49.994H61.2703C61.2693 50.2869 61.3848 50.5672 61.5914 50.7747C61.7979 50.9823 62.0782 51.0987 62.3711 51.0996H62.3731C62.9822 51.0996 63.4759 50.6069 63.4768 49.9988L63.4885 43.7914C63.4894 43.1814 62.9967 42.6867 62.3876 42.6857H62.3857C61.7766 42.6857 61.2829 43.1785 61.2819 43.7866L61.2693 49.994ZM25.8426 9.90669C25.9619 10.1734 26.183 10.3829 26.4575 10.4867C26.731 10.5905 27.0346 10.5808 27.3013 10.4605C37.4864 5.89037 49.2687 6.63129 58.8 12.442C68.3323 18.2526 74.3883 28.3873 74.9906 39.5335C75.5929 50.6807 70.6648 61.4088 61.8156 68.2116C61.3316 68.5841 61.2414 69.2775 61.6138 69.7606C61.9853 70.2436 62.6788 70.3338 63.1628 69.9623C72.5816 62.7113 77.8249 51.2858 77.1808 39.417C76.5358 27.5483 70.087 16.7571 59.9389 10.5676C49.7898 4.37858 37.2442 3.58528 26.3967 8.4464C26.13 8.56667 25.9215 8.7878 25.8177 9.06133C25.7139 9.33485 25.7226 9.63938 25.8429 9.9061L25.8426 9.90669ZM21.6856 12.3547C22.0251 12.861 22.7098 12.9968 23.2161 12.6593C23.5546 12.4333 23.6342 12.3683 23.6448 12.3644L23.9959 12.1666L23.9969 12.1656C24.5265 11.864 24.7117 11.1909 24.4101 10.6613C24.1094 10.1317 23.4353 9.9455 22.9058 10.2471L22.5721 10.4343C22.5236 10.4625 22.3655 10.5594 22.3219 10.5934C22.2947 10.6147 22.2356 10.6584 21.9902 10.8223C21.4829 11.1618 21.3472 11.8475 21.6856 12.3547L21.6856 12.3547ZM5.10421 41.3631C5.11003 53.2629 10.9819 64.3954 20.8002 71.1188C30.6175 77.8441 43.1197 79.2971 54.2182 75.0034C54.7866 74.7822 55.0679 74.1431 54.8467 73.5747C54.6266 73.0073 53.9864 72.726 53.419 72.9472C43.2933 76.8695 31.9008 75.6998 22.7844 69.8008C13.6662 63.9018 7.93135 53.9883 7.36002 43.1438C6.78874 32.3002 11.4519 21.8398 19.8989 15.0144C20.1278 14.8311 20.2743 14.5634 20.3053 14.2715C20.3363 13.9805 20.25 13.6876 20.0657 13.4597C19.8815 13.2317 19.6138 13.0863 19.3218 13.0562C19.0299 13.0261 18.7379 13.1134 18.511 13.2987C10.0166 20.1345 5.08567 30.4581 5.10603 41.361L5.10421 41.3631Z" fill="white"/>
</svg>
