<svg width="38" height="38" viewBox="0 0 38 38" fill="none" xmlns="http://www.w3.org/2000/svg">
<circle cx="19" cy="19" r="19" fill="url(#paint0_linear_645_21404)"/>
<path d="M26.9646 15.0013C26.9248 14.0975 26.7786 13.4761 26.5692 12.9376C26.3532 12.366 26.0209 11.8543 25.5855 11.4289C25.1601 10.9969 24.645 10.6613 24.0801 10.4486C23.5385 10.2392 22.9204 10.0931 22.0165 10.0532C21.1059 10.01 20.8168 10 18.5072 10C16.1976 10 15.9086 10.01 15.0013 10.0498C14.0975 10.0897 13.4761 10.236 12.9377 10.4452C12.366 10.6613 11.8543 10.9936 11.4289 11.4289C10.9969 11.8543 10.6614 12.3694 10.4486 12.9344C10.2392 13.4761 10.0931 14.0941 10.0532 14.9979C10.01 15.9086 10 16.1977 10 18.5072C10 20.8168 10.01 21.1059 10.0498 22.0131C10.0897 22.917 10.236 23.5384 10.4454 24.0769C10.6614 24.6484 10.9969 25.1601 11.4289 25.5855C11.8543 26.0175 12.3694 26.3532 12.9344 26.5658C13.4761 26.7752 14.0941 26.9214 14.9981 26.9612C15.9052 27.0012 16.1944 27.0111 18.504 27.0111C20.8136 27.0111 21.1026 27.0012 22.0099 26.9612C22.9138 26.9214 23.5352 26.7752 24.0735 26.5658C25.2167 26.1238 26.1206 25.22 26.5626 24.0769C26.7718 23.5352 26.9181 22.917 26.958 22.0131C26.9978 21.1059 27.0078 20.8168 27.0078 18.5072C27.0078 16.1977 27.0045 15.9086 26.9646 15.0013ZM25.4327 21.9467C25.3961 22.7775 25.2566 23.2261 25.1403 23.5252C24.8544 24.2663 24.2662 24.8544 23.5252 25.1403C23.2261 25.2566 22.7742 25.3961 21.9467 25.4326C21.0494 25.4726 20.7803 25.4824 18.5106 25.4824C16.2409 25.4824 15.9684 25.4726 15.0744 25.4326C14.2436 25.3961 13.795 25.2566 13.4959 25.1403C13.1271 25.004 12.7914 24.788 12.519 24.5055C12.2365 24.2296 12.0205 23.8973 11.8842 23.5285C11.7679 23.2295 11.6283 22.7775 11.5919 21.9501C11.5519 21.0528 11.542 20.7836 11.542 18.5139C11.542 16.2441 11.5519 15.9717 11.5919 15.0778C11.6283 14.247 11.7679 13.7984 11.8842 13.4993C12.0205 13.1304 12.2365 12.7948 12.5223 12.5222C12.7981 12.2397 13.1304 12.0237 13.4993 11.8876C13.7984 11.7713 14.2504 11.6317 15.0778 11.5951C15.975 11.5553 16.2443 11.5453 18.5138 11.5453C20.787 11.5453 21.056 11.5553 21.95 11.5951C22.7808 11.6317 23.2295 11.7713 23.5285 11.8876C23.8973 12.0237 24.233 12.2397 24.5055 12.5222C24.788 12.7981 25.004 13.1304 25.1403 13.4993C25.2566 13.7984 25.3961 14.2502 25.4327 15.0778C25.4726 15.975 25.4826 16.2441 25.4826 18.5139C25.4826 20.7836 25.4726 21.0494 25.4327 21.9467Z" fill="white"/>
<path d="M18.5066 14.1372C16.0941 14.1372 14.1367 16.0945 14.1367 18.5071C14.1367 20.9198 16.0941 22.8771 18.5066 22.8771C20.9193 22.8771 22.8766 20.9198 22.8766 18.5071C22.8766 16.0945 20.9193 14.1372 18.5066 14.1372ZM18.5066 21.3418C16.9415 21.3418 15.672 20.0724 15.672 18.5071C15.672 16.9419 16.9415 15.6725 18.5066 15.6725C20.0719 15.6725 21.3413 16.9419 21.3413 18.5071C21.3413 20.0724 20.0719 21.3418 18.5066 21.3418Z" fill="white"/>
<path d="M24.0717 13.9645C24.0717 14.5279 23.6149 14.9847 23.0514 14.9847C22.4881 14.9847 22.0312 14.5279 22.0312 13.9645C22.0312 13.401 22.4881 12.9443 23.0514 12.9443C23.6149 12.9443 24.0717 13.401 24.0717 13.9645Z" fill="white"/>
<defs>
<linearGradient id="paint0_linear_645_21404" x1="19" y1="0" x2="19" y2="38" gradientUnits="userSpaceOnUse">
<stop stop-color="#A9479B"/>
<stop offset="1" stop-color="#E25C62"/>
</linearGradient>
</defs>
</svg>
