<svg width="74" height="91" viewBox="0 0 74 91" fill="none" xmlns="http://www.w3.org/2000/svg">
<path d="M60.3124 72.9805H13.1847C12.2509 72.9805 11.5195 73.7062 11.5195 74.6343V84.4153C19.3139 88.0884 27.5854 90.2208 36.3829 90.2208C45.4077 90.2208 53.956 87.9616 61.9767 84.2319V74.6343C61.9767 73.7217 61.2298 72.9805 60.3115 72.9805H60.3124Z" fill="white"/>
<path d="M52.7461 70.8234H58.3684V59.5479C56.575 58.6488 54.6939 57.8077 52.7461 57.0068V70.8234Z" fill="white"/>
<path d="M15.1289 70.8233H20.7517V57.0635C18.8579 57.8996 16.9796 58.774 15.1289 59.71V70.8233Z" fill="white"/>
<path d="M73.4675 76.9624C72.2122 69.2799 67.1947 64.4189 60.5254 60.6899V70.8454C62.5318 70.9586 64.1333 72.6069 64.1333 74.6345V83.1872C67.165 81.6614 70.1208 79.9347 72.9931 78.0407C73.3528 77.7964 73.5397 77.3794 73.4675 76.9624L73.4675 76.9624Z" fill="white"/>
<path d="M12.9717 60.8389C11.8821 61.4286 10.801 62.0368 9.73613 62.6825C4.51605 65.8607 0.979028 71.0659 0.0153407 76.962C-0.0568751 77.379 0.130743 77.7819 0.475542 78.0261C3.36479 80.0128 6.32781 81.7948 9.36224 83.3531V74.6343C9.36224 72.6059 10.9651 70.9577 12.9723 70.8451L12.9717 60.8389Z" fill="white"/>
<path d="M26.4181 13.3739H47.082C48.5199 13.3739 49.9006 12.8415 50.9788 11.8786L51.4822 11.4326L49.2817 3.42237C49.0516 2.4156 48.4767 1.55335 47.7142 0.948716C46.9382 0.34551 45.9746 0 44.9389 0C43.2567 0 41.8039 1.00677 40.9557 2.44465C40.1075 3.89674 38.54 4.8603 36.7424 4.8603C34.9448 4.8603 33.3774 3.89673 32.5292 2.44465C31.681 1.00672 30.2282 0 28.5459 0H28.5318C26.4608 0 24.6632 1.4089 24.1889 3.42248L22.0176 11.3457L22.5493 11.9064C23.5844 12.8417 24.9798 13.3741 26.4178 13.3741L26.4181 13.3739Z" fill="white"/>
<path d="M26.4188 19.6865H47.0682C48.9231 19.6865 50.7782 19.1973 52.3887 18.2627C52.6762 18.1041 52.9353 17.9321 53.2086 17.7303L52.1154 13.7322C50.7065 14.8969 48.9232 15.5298 47.0822 15.5298L26.4183 15.5305C24.5776 15.5305 22.7949 14.8976 21.371 13.7188L20.2637 17.731C20.537 17.9179 20.7961 18.1048 21.0835 18.2634C22.7084 19.198 24.5633 19.6865 26.4183 19.6865L26.4188 19.6865Z" fill="white"/>
<path d="M13.4471 23.1959C15.1038 24.7039 16.9927 25.8819 19.0226 26.728C18.9709 26.854 18.9398 26.9914 18.9398 27.1365V30.5824C17.0048 30.845 15.5032 32.8082 15.5032 35.2176C15.5032 37.67 17.0409 39.6525 19.0107 39.8761C19.3519 44.277 21.2558 48.3331 24.4863 51.4121C24.6222 51.5417 24.7688 51.6535 24.9075 51.7781V55.3648C24.4431 55.5411 23.7507 55.8101 22.9089 56.1507V70.8246H50.5907V56.1422C49.9238 55.8809 49.2533 55.6211 48.5772 55.3641V51.7009C51.8134 48.7344 53.9827 44.5685 54.448 39.8787C56.4305 39.6706 57.9816 37.6811 57.9816 35.2173C57.9816 32.8072 56.4806 30.8447 54.545 30.5821V27.1362C54.545 26.9911 54.5145 26.8544 54.4621 26.7277C56.4919 25.8816 58.3808 24.7035 60.0376 23.1956L63.417 20.1329C64.7112 18.9392 64.8117 16.9116 63.618 15.6173C63 14.956 62.1659 14.5822 61.2455 14.5822C60.4405 14.5822 59.678 14.8838 59.0883 15.4162L55.709 18.4938C53.3896 20.6198 50.2928 21.844 47.0664 21.844H26.4188C23.1961 21.844 20.0986 20.622 17.7763 18.4938L14.397 15.4162C13.0723 14.2204 11.0573 14.3302 9.88138 15.6173C8.68771 16.9115 8.77407 18.9392 10.0683 20.1329L13.4471 23.1959ZM46.4213 56.112C46.4213 61.4184 42.0784 65.7322 36.7436 65.7322C31.4088 65.7322 27.066 61.4184 27.066 56.112V53.452C29.9255 55.3211 33.2461 56.3186 36.721 56.3186C37.0127 56.3186 37.3051 56.3116 37.5989 56.2974C40.8584 56.1459 43.8639 55.0839 46.422 53.3784L46.4213 56.112ZM47.0684 28.2291C48.8964 28.2291 50.6806 27.9607 52.3889 27.4673V37.9781C52.3889 46.6546 45.8484 53.7558 37.4969 54.1431C28.8212 54.5332 21.0978 47.6706 21.0978 38.4526V27.4667C22.8069 27.9602 24.5909 28.2285 26.4183 28.2285L47.0684 28.2291Z" fill="white"/>
<path d="M28.9083 35.8577H31.2221C31.8176 35.8577 32.3004 35.3749 32.3004 34.7794C32.3004 34.184 31.8176 33.7012 31.2221 33.7012H28.9083C28.3129 33.7012 27.8301 34.184 27.8301 34.7794C27.8294 35.3749 28.3129 35.8577 28.9083 35.8577Z" fill="white"/>
<path d="M42.2658 35.8577H44.5796C45.175 35.8577 45.6578 35.3749 45.6578 34.7794C45.6578 34.184 45.175 33.7012 44.5796 33.7012H42.2658C41.6703 33.7012 41.1875 34.184 41.1875 34.7794C41.1868 35.3749 41.6704 35.8577 42.2658 35.8577Z" fill="white"/>
<path d="M36.7438 43.109C37.5304 43.109 38.3162 42.8655 38.9867 42.3776C39.4681 42.0272 39.5743 41.3525 39.2239 40.871C38.8727 40.3882 38.1973 40.282 37.7173 40.6339C37.1353 41.0572 36.3523 41.0558 35.7718 40.6339C35.2904 40.282 34.6149 40.3882 34.2652 40.871C33.9147 41.3525 34.0209 42.0272 34.5023 42.3776C35.1721 42.8655 35.958 43.109 36.7438 43.109H36.7438Z" fill="white"/>
<path d="M31.7913 46.2862C31.2801 46.592 31.113 47.2547 31.4181 47.7659C32.163 49.0112 33.3999 49.7554 34.7266 49.7554H38.7635C40.0903 49.7554 41.3272 49.012 42.072 47.7659C42.3771 47.2547 42.21 46.5927 41.6989 46.2862C41.1884 45.9831 40.5257 46.1481 40.2192 46.6593C39.863 47.2561 39.332 47.5981 38.7628 47.5981H34.7259C34.1567 47.5981 33.6257 47.2561 33.2696 46.6593C32.9651 46.1474 32.3032 45.9817 31.7913 46.2862H31.7913Z" fill="white"/>
</svg>
