<svg width="206" height="39" viewBox="0 0 206 39" fill="none" xmlns="http://www.w3.org/2000/svg">
    <path d="M36.207 29.526h6.39L21.298 7.102 0 29.526h6.39l14.908-15.721 14.91 15.721zM10.65 11.612v-4.51H4.26v11.212l6.39-6.702zM71.631 8.875 57.63 31h-5.026L47.451 8.875h5.279l3.572 15.772L66.32 8.875h5.31zm.797 5.12h4.9L73.944 31h-4.9l3.383-17.005zm3.287-2.37c-.843 0-1.538-.243-2.086-.727-.527-.506-.79-1.117-.79-1.834 0-.842.295-1.538.885-2.086.61-.569 1.401-.853 2.37-.853.864 0 1.56.242 2.087.727.547.463.821 1.043.821 1.738 0 .906-.305 1.644-.916 2.213-.611.548-1.402.822-2.37.822zM83.2 7.547h4.93L83.454 31h-4.931L83.2 7.547zm9.507 0h4.93L92.96 31h-4.931l4.678-23.453zm25.469 6.448L114.794 31h-4.678l.316-1.675c-1.412 1.285-3.15 1.928-5.215 1.928-1.328 0-2.55-.306-3.667-.917-1.117-.61-2.012-1.485-2.687-2.623-.653-1.16-.98-2.518-.98-4.078 0-1.875.412-3.56 1.233-5.057.843-1.517 1.981-2.697 3.414-3.54 1.433-.864 3.013-1.296 4.741-1.296 2.613 0 4.457.854 5.531 2.56l.443-2.307h4.931zm-11.442 13.18c.969 0 1.833-.231 2.591-.695a4.923 4.923 0 0 0 1.771-1.991c.421-.843.632-1.812.632-2.908 0-1.159-.348-2.076-1.043-2.75-.675-.674-1.623-1.011-2.845-1.011-.969 0-1.833.242-2.592.727-.758.463-1.348 1.116-1.77 1.96-.421.842-.632 1.811-.632 2.907 0 1.16.337 2.076 1.011 2.75.696.674 1.655 1.011 2.877 1.011zm24.572 4.204c-2.212 0-4.151-.4-5.816-1.2-1.643-.801-2.907-1.929-3.792-3.383-.885-1.454-1.328-3.129-1.328-5.025 0-2.508.569-4.763 1.707-6.764 1.159-2.023 2.781-3.614 4.867-4.773 2.087-1.16 4.478-1.739 7.175-1.739 1.981 0 3.73.338 5.247 1.012 1.517.674 2.666 1.643 3.445 2.908l-3.698 3.034c-1.18-1.728-2.96-2.592-5.341-2.592-1.623 0-3.056.38-4.299 1.138a7.92 7.92 0 0 0-2.908 3.098c-.674 1.306-1.011 2.76-1.011 4.361 0 1.707.537 3.066 1.612 4.078 1.095.99 2.623 1.485 4.583 1.485 2.339 0 4.298-.853 5.879-2.56l3.034 3.098c-2.191 2.55-5.31 3.824-9.356 3.824zm18.883-15.361a6.407 6.407 0 0 1 2.655-1.738c1.053-.359 2.286-.538 3.698-.538l-.885 4.552a21.32 21.32 0 0 0-1.138-.063c-1.496 0-2.697.368-3.603 1.106-.886.737-1.486 1.886-1.802 3.445L147.47 31h-4.93l3.382-17.005h4.677l-.41 2.023zm24.144 5.215c0 .78-.095 1.644-.285 2.592h-13.022c.169 2.318 1.633 3.477 4.393 3.477.864 0 1.686-.137 2.466-.411a6.295 6.295 0 0 0 2.086-1.17l2.054 3.256a9.807 9.807 0 0 1-3.255 1.707c-1.222.38-2.508.569-3.856.569-1.749 0-3.288-.306-4.615-.917-1.306-.632-2.318-1.527-3.034-2.686-.696-1.16-1.043-2.497-1.043-4.014 0-1.876.421-3.562 1.264-5.058a9.151 9.151 0 0 1 3.572-3.54c1.517-.864 3.245-1.296 5.183-1.296 1.644 0 3.066.306 4.267.917 1.222.611 2.16 1.486 2.813 2.623.675 1.138 1.012 2.455 1.012 3.951zm-8.313-3.793c-1.159 0-2.139.316-2.94.949-.8.61-1.369 1.464-1.706 2.56h8.439c0-1.096-.348-1.95-1.043-2.56-.675-.633-1.591-.949-2.75-.949zm15.896 13.813c-1.475 0-2.876-.158-4.204-.474-1.306-.337-2.328-.77-3.065-1.296l1.896-3.572c.738.485 1.633.875 2.687 1.17 1.074.295 2.149.442 3.224.442 1.116 0 1.949-.137 2.497-.41.547-.296.821-.707.821-1.233 0-.422-.242-.727-.727-.917-.484-.19-1.264-.39-2.339-.6-1.222-.232-2.233-.485-3.034-.76a5.233 5.233 0 0 1-2.054-1.327c-.569-.632-.854-1.485-.854-2.56 0-1.875.78-3.34 2.339-4.393 1.581-1.054 3.646-1.58 6.195-1.58 1.18 0 2.329.126 3.445.379 1.117.252 2.066.6 2.845 1.043l-1.77 3.603c-1.391-.864-3.066-1.296-5.025-1.296-1.075 0-1.897.158-2.466.474-.548.316-.822.716-.822 1.201 0 .443.243.77.727.98.485.19 1.296.4 2.434.632 1.201.232 2.181.485 2.94.759a4.714 4.714 0 0 1 2.023 1.296c.568.61.853 1.443.853 2.497 0 1.896-.801 3.36-2.402 4.393-1.581 1.033-3.635 1.549-6.164 1.549zm17.297-6.258a3.01 3.01 0 0 0-.063.695c0 1.096.601 1.643 1.802 1.643.653 0 1.317-.2 1.991-.6l.727 3.508c-1.096.675-2.507 1.012-4.235 1.012-1.602 0-2.887-.422-3.856-1.264-.97-.843-1.454-2.002-1.454-3.477 0-.422.052-.917.158-1.486l1.359-6.859h-2.624l.759-3.793h2.623l.822-4.14h4.931l-.822 4.14h4.236l-.759 3.793h-4.235l-1.36 6.828z" fill="#6D87CB"/>
</svg>
